<?xml version="1.0" encoding="UTF-8"?><svg id="Layer_1" xmlns="http://www.w3.org/2000/svg" xmlns:xlink="http://www.w3.org/1999/xlink" viewBox="0 0 792.36 611.81"><defs><style>.cls-1{fill:#fff;}.cls-2{fill:url(#linear-gradient);}</style><linearGradient id="linear-gradient" x1="178.92" y1="286.87" x2="601.06" y2="286.87" gradientTransform="translate(0 612.66) scale(1 -1)" gradientUnits="userSpaceOnUse"><stop offset="0" stop-color="#81d0d4"/><stop offset="1" stop-color="#575fab"/></linearGradient></defs><g id="Layer_1-2"><g><path class="cls-1" d="M250.04,288.87c.11,.46,.11,.8,.11,1.25v.46c0,2.29-.56,4.33-1.36,6.39-.79,1.93-1.69,3.76-2.7,5.47-1.92,3.42-5.3,7.75-9.14,12.08-4.52,5.02-9.6,10.04-13.31,13.22-4.62,3.88-9.6,7.64-14.9,9.57-2.25,.8-4.52,1.37-7,1.37-3.38,0-7-1.02-10.73-3.42-4.97-3.08-8.36-7.53-10.28-12.55-1.24-3.2-1.81-6.5-1.81-9.92,0-2.4,.23-4.67,.79-7.06,.79-3.31,1.92-6.39,3.38-9.24,1.47-2.96,3.05-5.71,4.85-8.44,1.13-1.82,2.25-3.53,3.51-5.35,1.24-1.71,2.6-3.42,4.06-5.02,.23-.22,.33-.46,.33-.46,0-.11-.11-.22-.33-.58-.56-.8-1.24-1.71-1.92-2.73-.56-.91-1.13-1.93-1.69-2.96-1.36-3.2-1.92-6.15-1.92-9.13v-.8c.23-3.42,1.36-6.73,3.05-10.04,2.93-5.35,6.54-9.92,10.83-13.68,4.4-4,9.6-7.18,15.23-9.8,2.6-1.13,5.42-2.05,8.24-2.51,1.69-.34,3.51-.46,5.08-.46,2.37,0,4.52,.34,6.54,1.02,3.61,1.37,6.66,3.88,8.46,8.09,.56,1.37,1.01,2.96,1.36,4.67,.11,.34,.11,.69,.11,1.13,0,.91-.23,1.93-.56,2.73-.56,1.26-1.47,2.29-2.7,2.73-.33,.11-.68,.11-1.01,.11-1.01,0-2.15-.34-3.16-1.02-1.24-.8-2.48-1.93-2.83-3.2-.23-.46-.23-.91-.33-1.49,0-.11,.11-.22,.11-.22v-.11c-.11-.11-.33-.11-.45-.11-.45,0-1.01,.11-1.47,.22l-.45,.11c-3.16,.8-6.21,1.82-9.14,3.31-2.93,1.37-5.64,3.08-8.36,4.91-3.51,2.4-7.45,6.15-10.5,10.37-2.7,3.53-4.74,7.42-5.53,10.95-.11,.69-.11,1.13-.11,1.25,.11,.11,.33,.11,.79,.11h.56c1.36-.11,2.48-.34,3.51-.69,1.24-.34,2.48-.8,3.72-.8,2.25,0,4.85,1.37,8.58,6.04,1.24,1.49,1.81,2.84,1.81,4,0,.22,0,.58-.11,.8-.45,1.49-1.69,2.51-4.06,3.2-.23,.11-.56,.22-.91,.34-.68,.22-1.36,.46-2.15,.58-1.59,.22-2.83,.8-3.94,1.6-1.24,.8-2.25,1.93-3.28,3.08-2.37,2.96-4.62,5.93-6.66,9.01-2.02,3.08-3.84,6.26-5.41,9.57-1.36,2.73-2.15,5.35-2.48,8.21-.11,1.13-.23,2.29-.23,3.53,0,1.6,.11,3.31,.33,5.02,.23,1.25,.56,2.05,1.13,2.4,.23,.11,.56,.22,1.01,.22s1.01-.11,1.69-.34c5.53-1.71,14.78-7.86,23.81-14.93,10.61-8.21,20.76-17.56,24.37-22.57,.33-.46,.68-.91,1.24-1.25,.45-.22,.91-.46,1.47-.46,.45,0,.79,.11,1.24,.34,.94,.48,1.39,1.05,1.62,1.85Zm16.36,23.36c1.8-.69,2.02-2.51,2.02-4.33v-2.16c-.11-2.05-.23-4.22-.23-6.39,0-21.54,5.76-45.48,9.6-66.11v-.11c0-3.42-6.44-8.09-10.05-8.09h-.56c-1.13,.22-1.47,.91-1.69,1.82-4.17,14.37-9.93,47.99-9.93,67.15,0,3.64,.23,6.62,.68,9.01,.56,2.73,1.8,5.13,3.38,7.3,1.01,1.13,3.72,2.17,5.53,2.17,.45-.03,.91-.14,1.24-.27Zm10.61-22.79c0-7.18,2.37-14.14,5.86-20.98,2.6-5.02,6.44-8.77,10.83-12.08,4.29-3.31,8.36-4.67,11.85-4.67,8.36,0,13.77,7.64,13.77,15.5,0,8.33-6.21,16.88-21.89,16.88-2.25,0-4.85-.11-7.68-.58-1.59,5.82-2.15,8.44-2.15,11.39,0,1.37,.11,2.96,.33,5.02,.45,5.02,2.6,6.84,5.53,6.84,7.12,0,18.74-10.95,22.35-13.46,.33-.22,.79-.69,1.24-.69,.11,0,.33,.11,.56,.34s.33,.46,.33,.8-.11,.8-.23,1.13c-1.01,4.55-6.44,15.96-15.23,19.61-1.69,1.02-3.38,1.49-5.2,1.49-1.47,0-2.93-.22-4.4-.69-6.66-1.93-10.61-6.73-13.21-12.88-1.87-4.43-2.67-8.76-2.67-12.98Zm18.86-15.39c0,.22,0,.34,.11,.46,.33,.58,.91,.8,1.59,.8,.56,0,1.24-.22,1.81-.22,5.41-.46,10.61-4,13.66-8.44,.23-.58,.33-1.02,.33-1.37,0-1.13-.79-1.82-2.25-1.82-.45,0-.91,.11-1.36,.22s-.91,.22-1.24,.34c-2.72,.69-12.65,7.29-12.65,10.04Zm89.05,29.52c2.37-7.86,4.97-27.93,5.98-36.48,.12-.91,.23-1.71,.23-2.51,0-2.96-1.24-4.33-4.74-6.04-2.15-1.02-3.72-1.93-4.97-1.93-1.36,0-2.48,.91-3.84,3.64-2.83,5.59-5.3,11.28-8.36,16.76-2.48,4.55-4.52,9.24-6.66,13.9v-.8c0-4.11,2.6-17.1,3.16-20.98,0-.34,.11-.8,.11-1.13,0-1.82-.79-3.31-2.25-4.55-1.59-1.37-3.51-2.29-5.53-2.84-.68-.22-1.24-.34-1.69-.34-1.92,0-2.83,1.37-4.52,4.22,0,0-12.65,22.45-15.35,24.05,1.36-5.47,2.25-11.63,3.05-17.21,0-.46,.11-.8,.11-1.25,0-5.02-3.94-9.01-8.92-9.24h-.45c-2.15,0-3.28,.91-3.38,3.2-.56,11.06-4.52,27.47-6.66,38.64-.11,.69-.23,1.25-.23,1.93,0,2.29,1.13,4.11,3.16,5.71,1.47,1.02,3.16,1.71,4.85,2.17,.91,.34,1.69,.46,2.37,.46,1.24,0,2.15-.69,3.28-2.51,1.81-3.08,3.61-6.15,5.3-9.35,1.24-2.62,9.47-18.23,11.29-19.61,.11,.11,.11,.46,.11,1.02,0,3.64-2.48,15.85-2.83,18.35,0,.46-.11,1.02-.11,1.49,0,4.44,2.37,7.42,7.12,8.66,.68,.22,1.36,.22,1.8,.22,.91,0,1.59-.22,2.15-.69,2.02-1.71,13.21-23.49,15.91-29.29,.23,.34,.33,.69,.33,.91,0,.46-.11,.8-.23,1.25-1.01,4.55-1.69,9.13-2.25,13.9,0,.46-.11,1.02-.11,1.49,0,2.84,.91,5.13,3.28,6.62,1.59,.91,3.28,1.6,4.97,1.6,2.05-.02,3.75-1.04,4.53-3.44Zm13.89-1.13c-1.92-4.44-2.7-8.77-2.7-12.99,0-7.18,2.37-14.14,5.86-20.98,2.6-5.02,6.44-8.77,10.83-12.08,4.29-3.31,8.36-4.67,11.85-4.67,8.36,0,13.77,7.64,13.77,15.5,0,8.33-6.21,16.88-21.89,16.88-2.25,0-4.85-.11-7.68-.58-1.59,5.82-2.15,8.44-2.15,11.39,0,1.37,.11,2.96,.33,5.02,.45,5.02,2.6,6.84,5.53,6.84,7.12,0,18.74-10.95,22.35-13.46,.33-.22,.79-.69,1.24-.69,.12,0,.33,.11,.56,.34s.33,.46,.33,.8-.11,.8-.23,1.13c-1.01,4.55-6.44,15.96-15.23,19.61-1.69,1.02-3.38,1.49-5.2,1.49-1.47,0-2.93-.22-4.4-.69-6.63-1.92-10.58-6.71-13.18-12.86Zm16.14-28.38c0,.22,0,.34,.12,.46,.33,.58,.91,.8,1.57,.8,.56,0,1.24-.22,1.81-.22,5.41-.46,10.61-4,13.66-8.44,.23-.58,.33-1.02,.33-1.37,0-1.13-.79-1.82-2.25-1.82-.45,0-.91,.11-1.36,.22s-.91,.22-1.24,.34c-2.72,.69-12.65,7.29-12.65,10.04Zm33.51,36.82c.56,.22,1.24,.34,1.92,.34s1.36-.22,1.81-.8c7.56-10.95,12.98-21.32,20.2-31.8,.23,.11,.45,.11,.79,.22-.23,1.49-.45,3.08-.68,4.55-1.13,6.04-2.15,12.19-3.38,18.23-.12,.91-.23,1.82-.23,2.62,0,1.6,.23,3.08,.91,4.55,.91,2.29,3.38,3.64,6.89,4.44h.56c2.48-.22,3.49-1.93,4.62-4.11,1.69-3.2,2.48-5.93,3.05-8.77,1.92-10.26,2.83-21.32,4.85-31.58,0-.22,.12-.46,.12-.69,0-3.88-5.53-7.75-9.7-8.44-.79-.34-1.47-.46-2.02-.46-1.01,0-1.69,.69-2.37,2.29-2.02,4.55-15.58,25.54-17.27,25.54,0-.22,3.16-18.81,3.28-19.5,.12-.8,.23-1.49,.23-2.16,0-5.47-4.62-7.86-10.73-7.64-1.59,0-2.48,.46-2.7,2.17-.91,7.18-6.09,34.66-7.9,41.04-.33,1.02-.45,1.93-.45,2.84-.01,4.23,3.26,6.41,8.22,7.1Zm86.34-62.93h2.02c.91,0,1.69-.22,2.15-1.13,.11-.34,.23-.69,.23-1.02,0-1.71-1.24-3.64-3.28-3.64h-.33c-3.28-.22-10.96-.8-10.96-4.44v-.11c0-.46,.12-.91,.12-1.37,0-8.33-7-11.97-10.96-11.97-1.59,0-2.6,.58-2.6,1.6v.91c0,4.79-1.92,14.7-6.77,15.73-3.94,.91-7.9,2.4-11.97,2.73-.91,.11-1.36,.46-1.36,1.13,0,.34,.12,.69,.33,1.02,2.15,3.88,5.86,6.04,10.73,6.04h.56c.91,0,1.47,.58,1.47,1.49,0,.22,0,.46-.12,.69-.11,.58-.23,1.13-.45,1.6-2.02,6.5-7.12,36.37-7.12,46.39v1.6c.45,4.44,4.97,7.64,9.02,8.77,.91,.22,1.59,.34,2.15,.34,1.47,0,1.92-.91,2.37-3.31,2.93-19.15,4.06-41.15,11.17-59.4,.68-1.49,1.47-2.05,2.93-2.29,3.57-.54,7.06-1.34,10.67-1.34Zm37.81,22.01c1.24,1.25,1.69,2.4,1.69,3.88,0,.46,0,.91-.11,1.37-2.7,11.97-7.56,24.05-8.13,36.6-.12,1.6-.33,3.53-2.15,4.22-.45,.22-1.01,.22-1.47,.22-1.24,0-2.48-.58-3.51-1.49-3.38-2.96-4.29-6.95-4.62-11.17v-6.73c-2.83,4.67-8.81,12.55-13.43,15.39-1.24,.8-2.6,1.13-3.84,1.13-1.8,0-3.61-.69-5.3-1.6-6.09-3.53-9.04-9.01-9.04-16.08v-.34c.23-11.51,3.72-21.77,11.06-30.67,1.69-1.93,3.72-3.53,5.76-5.02,2.6-1.82,5.08-2.51,7.56-2.51,3.61,0,7.12,1.49,10.61,3.42,4.53,2.4,11.76,6.15,14.91,9.35Zm-14.32,.58c0-.34-.11-.8-.56-1.25-1.01-1.13-2.02-1.6-2.93-1.6-2.25,0-4.52,2.4-6.54,4.44-5.76,5.93-9.47,13.22-11.62,21.21-.56,1.82-1.01,3.88-1.01,6.04v.69c1.92-.34,18.74-24.16,21.89-27.82,.42-.58,.77-1.04,.77-1.71Zm42.78-37.4c0-3.42-6.44-8.09-10.05-8.09h-.56c-1.13,.22-1.47,.91-1.69,1.82-4.17,14.37-9.93,47.99-9.93,67.15,0,3.64,.23,6.62,.68,9.01,.56,2.73,1.81,5.13,3.38,7.3,1.01,1.13,3.72,2.17,5.53,2.17,.45,0,.91-.11,1.24-.22,1.81-.69,2.02-2.51,2.02-4.33v-2.16c-.12-2.05-.23-4.22-.23-6.39,0-21.54,5.76-45.48,9.6-66.11v-.16h0Zm-270.7,107.54c-2.25-1.6-4.85-2.4-7.33-3.2-.56-.22-1.01-.22-1.36-.22-1.13,0-1.69,.69-2.48,2.17-5.98,10.72-11.74,20.18-16.92,31.35-2.25-7.3-2.48-15.05-4.4-21.77-2.02-6.84-8.13-12.31-14.67-12.88-.56-.11-1.01-.11-1.47-.11-2.02,0-2.6,.8-2.83,3.53-.45,4.79-2.02,9.24-3.38,13.68-2.37,8.66-12.86,46.06-13.77,62.13-.11,1.26-.11,2.51-.11,3.53,0,5.47,1.24,8.44,7.45,8.44,.79,0,1.59,0,2.37-.11,2.25-.11,2.25-2.51,2.6-4.22,.91-3.42,1.47-7.06,2.37-10.48,.79-2.84,9.82-43.88,9.93-44,.33,1.49,.56,2.73,.91,3.88,1.01,4.44,2.02,8.89,3.38,13.34,1.59,4.79,7,7.97,11.85,7.97,.45,0,1.01,0,1.47-.11,1.59-.22,2.15-1.02,2.15-2.4l-.33-2.73c-.11-.46-.11-.91-.11-1.37,0-.8,.11-1.49,.45-2.29,3.61-8.55,6.66-17.32,11.51-25.98,0,.11,.11,.34,.11,.8,0,4.91-4.06,29.4-4.74,33.29-.79,4.33-1.36,14.59-1.36,19.03v.34c0,3.31,1.47,5.82,4.29,7.53,2.02,1.13,4.29,1.82,6.66,2.17,.33,0,.79,.11,1.01,.11,1.92,0,2.6-.91,2.93-3.31,.23-2.51,.11-4.91,.33-7.42,1.59-24.16,6.66-43.77,7.68-61.33v-.91c-.03-3.58-1.27-6.42-4.2-8.47Zm20.2,53.12c-1.59,5.82-2.15,8.44-2.15,11.39,0,1.37,.11,2.96,.33,5.02,.45,5.02,2.6,6.84,5.53,6.84,7.12,0,18.74-10.95,22.35-13.46,.33-.22,.79-.69,1.24-.69,.11,0,.33,.11,.56,.34s.33,.46,.33,.8-.11,.8-.23,1.13c-1.01,4.55-6.44,15.96-15.23,19.61-1.69,1.02-3.38,1.49-5.2,1.49-1.47,0-2.93-.22-4.4-.69-6.66-1.93-10.61-6.73-13.21-12.88-1.92-4.44-2.7-8.77-2.7-12.99,0-7.18,2.37-14.14,5.86-20.98,2.6-5.02,6.44-8.77,10.83-12.08,4.29-3.31,8.36-4.67,11.85-4.67,8.36,0,13.77,7.64,13.77,15.5,0,8.33-6.21,16.88-21.89,16.88-2.24,0-4.84-.11-7.65-.56Zm6.09-9.46c0,.22,0,.34,.11,.46,.33,.58,.91,.8,1.59,.8,.56,0,1.24-.22,1.81-.22,5.41-.46,10.61-4,13.66-8.44,.23-.58,.33-1.02,.33-1.37,0-1.13-.79-1.82-2.25-1.82-.45,0-.91,.11-1.36,.22s-.91,.22-1.24,.34c-2.72,.69-12.65,7.29-12.65,10.04Zm81.6-40.93c-1.24,7.06-4.17,20.86-12.19,68.51l-.79,7.18c-.23,1.93-1.36,2.84-3.16,2.84-.23,0-.45,0-.79-.11-3.72-.58-6.21-3.31-6.89-7.42-.45-1.93-.79-4-1.01-5.93-3.51,5.59-7.22,15.17-14.22,15.17-1.13,0-2.25-.22-3.61-.69-6.09-2.4-10.5-6.84-11.85-13.68-.33-1.6-.45-3.2-.45-4.67,0-2.29,.23-4.44,.79-6.5,2.37-11.28,6.21-21.89,13.54-31.11,1.59-1.93,3.28-3.53,5.41-4.91,2.15-1.49,5.2-2.29,8.24-2.29,3.28,0,6.54,.91,8.46,2.84l7.45-28.73c.56-1.6,1.24-2.4,2.48-2.4,.33,0,.79,0,1.36,.22,3.94,1.13,7.34,5.93,7.34,10.26,.02,.5,.02,.94-.11,1.41Zm-20.87,28.38c0-1.02-1.01-1.82-2.15-1.82-.33,0-.68,.11-.91,.22-4.17,2.4-8.69,11.51-10.73,15.73-3.28,7.18-5.3,14.81-6.66,22.57-.11,.46-.23,1.02-.23,1.6s.12,1.13,.45,1.82c8.92-10.72,17.27-26.11,20.08-39.79l.14-.32Zm29.56-8.21c-.91-.22-1.59-.46-2.15-.34-1.47,.11-2.15,1.25-2.02,3.42,.23,4.79-6.21,31.24-7,40.35-.23,2.4-.56,5.35-.33,8.09,.11,2.96,.91,5.71,3.05,7.53,2.83,2.4,4.74,3.31,6.09,3.2,2.7-.22,3.51-4.11,4.17-8.77,2.37-14.59,5.41-29.18,6.89-43.77v-1.49c-.35-4.55-4.64-6.73-8.7-8.21Zm9.94-14.93c-1.01-2.84-5.98-6.5-8.81-6.5h-.45c-1.36,.11-2.02,.8-2.15,2.4-.23,3.53-.23,6.95-.23,9.57,.33,5.47,1.57,6.95,5.41,7.3h.68c1.13-.11,2.02-.46,2.7-1.71,1.36-2.62,2.37-5.24,3.16-8.09,0-.46,.12-.91,0-1.37,.02-.58-.09-1.15-.32-1.6Zm52.25,31.58c1.24,1.25,1.69,2.4,1.69,3.88,0,.46,0,.91-.11,1.37-2.7,11.97-7.56,24.05-8.13,36.6-.12,1.6-.33,3.53-2.15,4.22-.45,.22-1.01,.22-1.47,.22-1.24,0-2.48-.58-3.51-1.49-3.38-2.96-4.29-6.95-4.62-11.17v-6.73c-2.83,4.67-8.81,12.55-13.43,15.39-1.24,.8-2.6,1.13-3.84,1.13-1.81,0-3.61-.69-5.3-1.6-6.09-3.53-9.04-9.01-9.04-16.08v-.34c.23-11.51,3.72-21.77,11.06-30.67,1.69-1.93,3.72-3.53,5.76-5.02,2.6-1.82,5.08-2.51,7.56-2.51,3.61,0,7.12,1.49,10.61,3.42,4.53,2.4,11.76,6.15,14.91,9.35Zm-14.34,.58c0-.34-.11-.8-.56-1.25-1.01-1.13-2.02-1.6-2.93-1.6-2.25,0-4.52,2.4-6.54,4.44-5.76,5.93-9.47,13.22-11.62,21.21-.56,1.82-1.01,3.88-1.01,6.04v.69c1.92-.34,18.74-24.16,21.89-27.82,.44-.58,.77-1.04,.77-1.71Z"/><path class="cls-2" d="M250.04,288.87c.11,.46,.11,.8,.11,1.25v.46c0,2.29-.56,4.33-1.36,6.39-.79,1.93-1.69,3.76-2.7,5.47-1.92,3.42-5.3,7.75-9.14,12.08-4.52,5.02-9.6,10.04-13.31,13.22-4.62,3.88-9.6,7.64-14.9,9.57-2.25,.8-4.52,1.37-7,1.37-3.38,0-7-1.02-10.73-3.42-4.97-3.08-8.36-7.53-10.28-12.55-1.24-3.2-1.81-6.5-1.81-9.92,0-2.4,.23-4.67,.79-7.06,.79-3.31,1.92-6.39,3.38-9.24,1.47-2.96,3.05-5.71,4.85-8.44,1.13-1.82,2.25-3.53,3.51-5.35,1.24-1.71,2.6-3.42,4.06-5.02,.23-.22,.33-.46,.33-.46,0-.11-.11-.22-.33-.58-.56-.8-1.24-1.71-1.92-2.73-.56-.91-1.13-1.93-1.69-2.96-1.36-3.2-1.92-6.15-1.92-9.13v-.8c.23-3.42,1.36-6.73,3.05-10.04,2.93-5.35,6.54-9.92,10.83-13.68,4.4-4,9.6-7.18,15.23-9.8,2.6-1.13,5.42-2.05,8.24-2.51,1.69-.34,3.51-.46,5.08-.46,2.37,0,4.52,.34,6.54,1.02,3.61,1.37,6.66,3.88,8.46,8.09,.56,1.37,1.01,2.96,1.36,4.67,.11,.34,.11,.69,.11,1.13,0,.91-.23,1.93-.56,2.73-.56,1.26-1.47,2.29-2.7,2.73-.33,.11-.68,.11-1.01,.11-1.01,0-2.15-.34-3.16-1.02-1.24-.8-2.48-1.93-2.83-3.2-.23-.46-.23-.91-.33-1.49,0-.11,.11-.22,.11-.22v-.11c-.11-.11-.33-.11-.45-.11-.45,0-1.01,.11-1.47,.22l-.45,.11c-3.16,.8-6.21,1.82-9.14,3.31-2.93,1.37-5.64,3.08-8.36,4.91-3.51,2.4-7.45,6.15-10.5,10.37-2.7,3.53-4.74,7.42-5.53,10.95-.11,.69-.11,1.13-.11,1.25,.11,.11,.33,.11,.79,.11h.56c1.36-.11,2.48-.34,3.51-.69,1.24-.34,2.48-.8,3.72-.8,2.25,0,4.85,1.37,8.58,6.04,1.24,1.49,1.81,2.84,1.81,4,0,.22,0,.58-.11,.8-.45,1.49-1.69,2.51-4.06,3.2-.23,.11-.56,.22-.91,.34-.68,.22-1.36,.46-2.15,.58-1.59,.22-2.83,.8-3.94,1.6-1.24,.8-2.25,1.93-3.28,3.08-2.37,2.96-4.62,5.93-6.66,9.01-2.02,3.08-3.84,6.26-5.41,9.57-1.36,2.73-2.15,5.35-2.48,8.21-.11,1.13-.23,2.29-.23,3.53,0,1.6,.11,3.31,.33,5.02,.23,1.25,.56,2.05,1.13,2.4,.23,.11,.56,.22,1.01,.22s1.01-.11,1.69-.34c5.53-1.71,14.78-7.86,23.81-14.93,10.61-8.21,20.76-17.56,24.37-22.57,.33-.46,.68-.91,1.24-1.25,.45-.22,.91-.46,1.47-.46,.45,0,.79,.11,1.24,.34,.94,.48,1.39,1.05,1.62,1.85Zm16.36,23.36c1.8-.69,2.02-2.51,2.02-4.33v-2.16c-.11-2.05-.23-4.22-.23-6.39,0-21.54,5.76-45.48,9.6-66.11v-.11c0-3.42-6.44-8.09-10.05-8.09h-.56c-1.13,.22-1.47,.91-1.69,1.82-4.17,14.37-9.93,47.99-9.93,67.15,0,3.64,.23,6.62,.68,9.01,.56,2.73,1.8,5.13,3.38,7.3,1.01,1.13,3.72,2.17,5.53,2.17,.45-.03,.91-.14,1.24-.27Zm10.61-22.79c0-7.18,2.37-14.14,5.86-20.98,2.6-5.02,6.44-8.77,10.83-12.08,4.29-3.31,8.36-4.67,11.85-4.67,8.36,0,13.77,7.64,13.77,15.5,0,8.33-6.21,16.88-21.89,16.88-2.25,0-4.85-.11-7.68-.58-1.59,5.82-2.15,8.44-2.15,11.39,0,1.37,.11,2.96,.33,5.02,.45,5.02,2.6,6.84,5.53,6.84,7.12,0,18.74-10.95,22.35-13.46,.33-.22,.79-.69,1.24-.69,.11,0,.33,.11,.56,.34s.33,.46,.33,.8-.11,.8-.23,1.13c-1.01,4.55-6.44,15.96-15.23,19.61-1.69,1.02-3.38,1.49-5.2,1.49-1.47,0-2.93-.22-4.4-.69-6.66-1.93-10.61-6.73-13.21-12.88-1.87-4.43-2.67-8.76-2.67-12.98Zm18.86-15.39c0,.22,0,.34,.11,.46,.33,.58,.91,.8,1.59,.8,.56,0,1.24-.22,1.81-.22,5.41-.46,10.61-4,13.66-8.44,.23-.58,.33-1.02,.33-1.37,0-1.13-.79-1.82-2.25-1.82-.45,0-.91,.11-1.36,.22s-.91,.22-1.24,.34c-2.72,.69-12.65,7.29-12.65,10.04Zm89.05,29.52c2.37-7.86,4.97-27.93,5.98-36.48,.12-.91,.23-1.71,.23-2.51,0-2.96-1.24-4.33-4.74-6.04-2.15-1.02-3.72-1.93-4.97-1.93-1.36,0-2.48,.91-3.84,3.64-2.83,5.59-5.3,11.28-8.36,16.76-2.48,4.55-4.52,9.24-6.66,13.9v-.8c0-4.11,2.6-17.1,3.16-20.98,0-.34,.11-.8,.11-1.13,0-1.82-.79-3.31-2.25-4.55-1.59-1.37-3.51-2.29-5.53-2.84-.68-.22-1.24-.34-1.69-.34-1.92,0-2.83,1.37-4.52,4.22,0,0-12.65,22.45-15.35,24.05,1.36-5.47,2.25-11.63,3.05-17.21,0-.46,.11-.8,.11-1.25,0-5.02-3.94-9.01-8.92-9.24h-.45c-2.15,0-3.28,.91-3.38,3.2-.56,11.06-4.52,27.47-6.66,38.64-.11,.69-.23,1.25-.23,1.93,0,2.29,1.13,4.11,3.16,5.71,1.47,1.02,3.16,1.71,4.85,2.17,.91,.34,1.69,.46,2.37,.46,1.24,0,2.15-.69,3.28-2.51,1.81-3.08,3.61-6.15,5.3-9.35,1.24-2.62,9.47-18.23,11.29-19.61,.11,.11,.11,.46,.11,1.02,0,3.64-2.48,15.85-2.83,18.35,0,.46-.11,1.02-.11,1.49,0,4.44,2.37,7.42,7.12,8.66,.68,.22,1.36,.22,1.8,.22,.91,0,1.59-.22,2.15-.69,2.02-1.71,13.21-23.49,15.91-29.29,.23,.34,.33,.69,.33,.91,0,.46-.11,.8-.23,1.25-1.01,4.55-1.69,9.13-2.25,13.9,0,.46-.11,1.02-.11,1.49,0,2.84,.91,5.13,3.28,6.62,1.59,.91,3.28,1.6,4.97,1.6,2.05-.02,3.75-1.04,4.53-3.44Zm13.89-1.13c-1.92-4.44-2.7-8.77-2.7-12.99,0-7.18,2.37-14.14,5.86-20.98,2.6-5.02,6.44-8.77,10.83-12.08,4.29-3.31,8.36-4.67,11.85-4.67,8.36,0,13.77,7.64,13.77,15.5,0,8.33-6.21,16.88-21.89,16.88-2.25,0-4.85-.11-7.68-.58-1.59,5.82-2.15,8.44-2.15,11.39,0,1.37,.11,2.96,.33,5.02,.45,5.02,2.6,6.84,5.53,6.84,7.12,0,18.74-10.95,22.35-13.46,.33-.22,.79-.69,1.24-.69,.12,0,.33,.11,.56,.34s.33,.46,.33,.8-.11,.8-.23,1.13c-1.01,4.55-6.44,15.96-15.23,19.61-1.69,1.02-3.38,1.49-5.2,1.49-1.47,0-2.93-.22-4.4-.69-6.63-1.92-10.58-6.71-13.18-12.86Zm16.14-28.38c0,.22,0,.34,.12,.46,.33,.58,.91,.8,1.57,.8,.56,0,1.24-.22,1.81-.22,5.41-.46,10.61-4,13.66-8.44,.23-.58,.33-1.02,.33-1.37,0-1.13-.79-1.82-2.25-1.82-.45,0-.91,.11-1.36,.22s-.91,.22-1.24,.34c-2.72,.69-12.65,7.29-12.65,10.04Zm33.51,36.82c.56,.22,1.24,.34,1.92,.34s1.36-.22,1.81-.8c7.56-10.95,12.98-21.32,20.2-31.8,.23,.11,.45,.11,.79,.22-.23,1.49-.45,3.08-.68,4.55-1.13,6.04-2.15,12.19-3.38,18.23-.12,.91-.23,1.82-.23,2.62,0,1.6,.23,3.08,.91,4.55,.91,2.29,3.38,3.64,6.89,4.44h.56c2.48-.22,3.49-1.93,4.62-4.11,1.69-3.2,2.48-5.93,3.05-8.77,1.92-10.26,2.83-21.32,4.85-31.58,0-.22,.12-.46,.12-.69,0-3.88-5.53-7.75-9.7-8.44-.79-.34-1.47-.46-2.02-.46-1.01,0-1.69,.69-2.37,2.29-2.02,4.55-15.58,25.54-17.27,25.54,0-.22,3.16-18.81,3.28-19.5,.12-.8,.23-1.49,.23-2.16,0-5.47-4.62-7.86-10.73-7.64-1.59,0-2.48,.46-2.7,2.17-.91,7.18-6.09,34.66-7.9,41.04-.33,1.02-.45,1.93-.45,2.84-.01,4.23,3.26,6.41,8.22,7.1Zm86.34-62.93h2.02c.91,0,1.69-.22,2.15-1.13,.11-.34,.23-.69,.23-1.02,0-1.71-1.24-3.64-3.28-3.64h-.33c-3.28-.22-10.96-.8-10.96-4.44v-.11c0-.46,.12-.91,.12-1.37,0-8.33-7-11.97-10.96-11.97-1.59,0-2.6,.58-2.6,1.6v.91c0,4.79-1.92,14.7-6.77,15.73-3.94,.91-7.9,2.4-11.97,2.73-.91,.11-1.36,.46-1.36,1.13,0,.34,.12,.69,.33,1.02,2.15,3.88,5.86,6.04,10.73,6.04h.56c.91,0,1.47,.58,1.47,1.49,0,.22,0,.46-.12,.69-.11,.58-.23,1.13-.45,1.6-2.02,6.5-7.12,36.37-7.12,46.39v1.6c.45,4.44,4.97,7.64,9.02,8.77,.91,.22,1.59,.34,2.15,.34,1.47,0,1.92-.91,2.37-3.31,2.93-19.15,4.06-41.15,11.17-59.4,.68-1.49,1.47-2.05,2.93-2.29,3.57-.54,7.06-1.34,10.67-1.34Zm37.81,22.01c1.24,1.25,1.69,2.4,1.69,3.88,0,.46,0,.91-.11,1.37-2.7,11.97-7.56,24.05-8.13,36.6-.12,1.6-.33,3.53-2.15,4.22-.45,.22-1.01,.22-1.47,.22-1.24,0-2.48-.58-3.51-1.49-3.38-2.96-4.29-6.95-4.62-11.17v-6.73c-2.83,4.67-8.81,12.55-13.43,15.39-1.24,.8-2.6,1.13-3.84,1.13-1.8,0-3.61-.69-5.3-1.6-6.09-3.53-9.04-9.01-9.04-16.08v-.34c.23-11.51,3.72-21.77,11.06-30.67,1.69-1.93,3.72-3.53,5.76-5.02,2.6-1.82,5.08-2.51,7.56-2.51,3.61,0,7.12,1.49,10.61,3.42,4.53,2.4,11.76,6.15,14.91,9.35Zm-14.32,.58c0-.34-.11-.8-.56-1.25-1.01-1.13-2.02-1.6-2.93-1.6-2.25,0-4.52,2.4-6.54,4.44-5.76,5.93-9.47,13.22-11.62,21.21-.56,1.82-1.01,3.88-1.01,6.04v.69c1.92-.34,18.74-24.16,21.89-27.82,.42-.58,.77-1.04,.77-1.71Zm42.78-37.4c0-3.42-6.44-8.09-10.05-8.09h-.56c-1.13,.22-1.47,.91-1.69,1.82-4.17,14.37-9.93,47.99-9.93,67.15,0,3.64,.23,6.62,.68,9.01,.56,2.73,1.81,5.13,3.38,7.3,1.01,1.13,3.72,2.17,5.53,2.17,.45,0,.91-.11,1.24-.22,1.81-.69,2.02-2.51,2.02-4.33v-2.16c-.12-2.05-.23-4.22-.23-6.39,0-21.54,5.76-45.48,9.6-66.11v-.16h0Zm-270.7,107.54c-2.25-1.6-4.85-2.4-7.33-3.2-.56-.22-1.01-.22-1.36-.22-1.13,0-1.69,.69-2.48,2.17-5.98,10.72-11.74,20.18-16.92,31.35-2.25-7.3-2.48-15.05-4.4-21.77-2.02-6.84-8.13-12.31-14.67-12.88-.56-.11-1.01-.11-1.47-.11-2.02,0-2.6,.8-2.83,3.53-.45,4.79-2.02,9.24-3.38,13.68-2.37,8.66-12.86,46.06-13.77,62.13-.11,1.26-.11,2.51-.11,3.53,0,5.47,1.24,8.44,7.45,8.44,.79,0,1.59,0,2.37-.11,2.25-.11,2.25-2.51,2.6-4.22,.91-3.42,1.47-7.06,2.37-10.48,.79-2.84,9.82-43.88,9.93-44,.33,1.49,.56,2.73,.91,3.88,1.01,4.44,2.02,8.89,3.38,13.34,1.59,4.79,7,7.97,11.85,7.97,.45,0,1.01,0,1.47-.11,1.59-.22,2.15-1.02,2.15-2.4l-.33-2.73c-.11-.46-.11-.91-.11-1.37,0-.8,.11-1.49,.45-2.29,3.61-8.55,6.66-17.32,11.51-25.98,0,.11,.11,.34,.11,.8,0,4.91-4.06,29.4-4.74,33.29-.79,4.33-1.36,14.59-1.36,19.03v.34c0,3.31,1.47,5.82,4.29,7.53,2.02,1.13,4.29,1.82,6.66,2.17,.33,0,.79,.11,1.01,.11,1.92,0,2.6-.91,2.93-3.31,.23-2.51,.11-4.91,.33-7.42,1.59-24.16,6.66-43.77,7.68-61.33v-.91c-.03-3.58-1.27-6.42-4.2-8.47Zm20.2,53.12c-1.59,5.82-2.15,8.44-2.15,11.39,0,1.37,.11,2.96,.33,5.02,.45,5.02,2.6,6.84,5.53,6.84,7.12,0,18.74-10.95,22.35-13.46,.33-.22,.79-.69,1.24-.69,.11,0,.33,.11,.56,.34s.33,.46,.33,.8-.11,.8-.23,1.13c-1.01,4.55-6.44,15.96-15.23,19.61-1.69,1.02-3.38,1.49-5.2,1.49-1.47,0-2.93-.22-4.4-.69-6.66-1.93-10.61-6.73-13.21-12.88-1.92-4.44-2.7-8.77-2.7-12.99,0-7.18,2.37-14.14,5.86-20.98,2.6-5.02,6.44-8.77,10.83-12.08,4.29-3.31,8.36-4.67,11.85-4.67,8.36,0,13.77,7.64,13.77,15.5,0,8.33-6.21,16.88-21.89,16.88-2.24,0-4.84-.11-7.65-.56Zm6.09-9.46c0,.22,0,.34,.11,.46,.33,.58,.91,.8,1.59,.8,.56,0,1.24-.22,1.81-.22,5.41-.46,10.61-4,13.66-8.44,.23-.58,.33-1.02,.33-1.37,0-1.13-.79-1.82-2.25-1.82-.45,0-.91,.11-1.36,.22s-.91,.22-1.24,.34c-2.72,.69-12.65,7.29-12.65,10.04Zm81.6-40.93c-1.24,7.06-4.17,20.86-12.19,68.51l-.79,7.18c-.23,1.93-1.36,2.84-3.16,2.84-.23,0-.45,0-.79-.11-3.72-.58-6.21-3.31-6.89-7.42-.45-1.93-.79-4-1.01-5.93-3.51,5.59-7.22,15.17-14.22,15.17-1.13,0-2.25-.22-3.61-.69-6.09-2.4-10.5-6.84-11.85-13.68-.33-1.6-.45-3.2-.45-4.67,0-2.29,.23-4.44,.79-6.5,2.37-11.28,6.21-21.89,13.54-31.11,1.59-1.93,3.28-3.53,5.41-4.91,2.15-1.49,5.2-2.29,8.24-2.29,3.28,0,6.54,.91,8.46,2.84l7.45-28.73c.56-1.6,1.24-2.4,2.48-2.4,.33,0,.79,0,1.36,.22,3.94,1.13,7.34,5.93,7.34,10.26,.02,.5,.02,.94-.11,1.41Zm-20.87,28.38c0-1.02-1.01-1.82-2.15-1.82-.33,0-.68,.11-.91,.22-4.17,2.4-8.69,11.51-10.73,15.73-3.28,7.18-5.3,14.81-6.66,22.57-.11,.46-.23,1.02-.23,1.6s.12,1.13,.45,1.82c8.92-10.72,17.27-26.11,20.08-39.79l.14-.32Zm29.56-8.21c-.91-.22-1.59-.46-2.15-.34-1.47,.11-2.15,1.25-2.02,3.42,.23,4.79-6.21,31.24-7,40.35-.23,2.4-.56,5.35-.33,8.09,.11,2.96,.91,5.71,3.05,7.53,2.83,2.4,4.74,3.31,6.09,3.2,2.7-.22,3.51-4.11,4.17-8.77,2.37-14.59,5.41-29.18,6.89-43.77v-1.49c-.35-4.55-4.64-6.73-8.7-8.21Zm9.94-14.93c-1.01-2.84-5.98-6.5-8.81-6.5h-.45c-1.36,.11-2.02,.8-2.15,2.4-.23,3.53-.23,6.95-.23,9.57,.33,5.47,1.57,6.95,5.41,7.3h.68c1.13-.11,2.02-.46,2.7-1.71,1.36-2.62,2.37-5.24,3.16-8.09,0-.46,.12-.91,0-1.37,.02-.58-.09-1.15-.32-1.6Zm52.25,31.58c1.24,1.25,1.69,2.4,1.69,3.88,0,.46,0,.91-.11,1.37-2.7,11.97-7.56,24.05-8.13,36.6-.12,1.6-.33,3.53-2.15,4.22-.45,.22-1.01,.22-1.47,.22-1.24,0-2.48-.58-3.51-1.49-3.38-2.96-4.29-6.95-4.62-11.17v-6.73c-2.83,4.67-8.81,12.55-13.43,15.39-1.24,.8-2.6,1.13-3.84,1.13-1.81,0-3.61-.69-5.3-1.6-6.09-3.53-9.04-9.01-9.04-16.08v-.34c.23-11.51,3.72-21.77,11.06-30.67,1.69-1.93,3.72-3.53,5.76-5.02,2.6-1.82,5.08-2.51,7.56-2.51,3.61,0,7.12,1.49,10.61,3.42,4.53,2.4,11.76,6.15,14.91,9.35Zm-14.34,.58c0-.34-.11-.8-.56-1.25-1.01-1.13-2.02-1.6-2.93-1.6-2.25,0-4.52,2.4-6.54,4.44-5.76,5.93-9.47,13.22-11.62,21.21-.56,1.82-1.01,3.88-1.01,6.04v.69c1.92-.34,18.74-24.16,21.89-27.82,.44-.58,.77-1.04,.77-1.71Z"/></g><g><path class="cls-1" d="M265.41,130.04c-2.83,15.44-5.42,30.94-7.78,46.46-5.11,.85-7.66,1.29-12.77,2.22-4.97-10.15-7.51-15.2-12.66-25.28-1.62,11.38-2.39,17.07-3.81,28.45-5.09,1.04-7.63,1.57-12.71,2.68-7.39-13.65-14.99-27.18-22.8-40.58,5.11-1.21,7.66-1.79,12.78-2.92,5.74,10.4,8.57,15.63,14.11,26.11,1.51-11.97,2.31-17.95,4.03-29.92,4.58-.91,6.88-1.36,11.45-2.21,5.44,10.69,8.1,16.06,13.33,26.85,1.83-12,2.8-18.01,4.85-30.01,4.79-.77,7.19-1.15,11.97-1.85Z"/><path class="cls-1" d="M304.65,155.7c-9.7,1.04-14.54,1.63-24.21,2.94,1.41,3.36,4.52,4.99,8.79,4.44,3.23-.42,5.27-1.61,7.33-3.92,2.73,2.35,4.08,3.53,6.78,5.91-2.81,4.04-7.21,6.46-13.43,7.26-11.67,1.49-20.22-4.87-21.61-15.12-1.39-10.31,5.58-18.87,16.32-20.26,10.05-1.29,18.84,4.35,19.93,15.73,.08,.89,.06,2.06,.09,3.02Zm-25.17-3.37c5.49-.75,8.24-1.1,13.72-1.76-1.01-3.55-3.87-5.51-7.54-5.05-3.66,.48-5.94,3.1-6.18,6.81Z"/><path class="cls-1" d="M307.3,122.09c4.84-.48,7.27-.72,12.1-1.13,1.22,15.76,2.43,31.51,3.66,47.27-4.61,.4-6.92,.61-11.53,1.07-1.41-15.73-2.83-31.47-4.23-47.21Z"/><path class="cls-1" d="M327.23,150.44c-.74-10.39,6.86-18.47,18.33-19.13,7.75-.45,13.83,2.83,16.35,8.74-3.61,2.06-5.39,3.1-8.98,5.19-1.75-3.18-4.2-4.46-6.95-4.3-4.13,.24-7.19,3.39-6.89,8.61,.32,5.35,3.67,8.07,7.72,7.85,2.7-.16,4.96-1.68,6.42-5.02,3.72,1.74,5.56,2.62,9.23,4.39-2.07,6.09-7.63,9.83-15.1,10.26-11.05,.64-19.4-6.09-20.14-16.6Z"/><path class="cls-1" d="M364.17,148.3c-.33-10.42,7.56-18.15,18.74-18.31,11.3-.16,19.27,7.35,19.19,17.77-.08,10.48-7.86,17.87-18.74,18.01-10.76,.16-18.84-7-19.19-17.47Zm26.04-.56c-.03-5.24-3.11-8.17-7.16-8.1-4,.06-7.07,3.07-6.97,8.31,.11,5.31,3.23,8.23,7.16,8.18,3.99-.06,6.98-3.08,6.97-8.39Z"/><path class="cls-1" d="M465.01,148.14c-.57,7.89-.86,11.86-1.45,19.75-4.61-.38-6.92-.54-11.54-.86,.44-7.11,.65-10.68,1.09-17.8,.3-4.97-1.57-7.22-4.68-7.42-3.43-.21-6.04,2.01-6.3,7.38-.33,6.87-.51,10.31-.85,17.16-4.62-.26-6.94-.37-11.54-.56,.26-7.13,.39-10.69,.65-17.82,.18-4.99-1.68-7.18-4.85-7.29-3.49-.13-6.06,2.17-6.2,7.54-.17,6.87-.26,10.31-.44,17.18-4.62-.13-6.94-.18-11.56-.24,.18-13.86,.27-20.78,.45-34.63,4.56,.06,6.85,.11,11.42,.24-.03,1.45-.06,2.19-.09,3.64,2.64-2.73,6.29-4.03,10.32-3.87,4.67,.19,8.58,2.11,10.79,5.93,2.86-3.31,7.19-5.05,12.1-4.73,7.95,.53,13.46,5.69,12.68,16.38Z"/><path class="cls-1" d="M506.38,158.15c-9.67-1.28-14.52-1.84-24.22-2.84,.66,3.6,3.34,5.93,7.63,6.41,3.25,.37,5.47-.34,7.96-2.09,2.16,2.94,3.23,4.41,5.36,7.37-3.58,3.28-8.39,4.6-14.63,3.9-11.68-1.31-18.66-9.51-17.85-19.83,.83-10.39,9.41-17.08,20.16-15.9,10.06,1.12,17.45,8.68,16.11,20.02-.09,.91-.35,2.03-.53,2.97Zm-23.81-9.22c5.5,.56,8.25,.86,13.75,1.52-.24-3.69-2.61-6.3-6.29-6.7-3.69-.4-6.45,1.63-7.46,5.18Z"/><path class="cls-1" d="M550.56,178.2c-2.21,.94-5.26,1.04-8.27,.5-8.36-1.49-12.63-6.55-11.36-15.33,.66-4.6,1-6.9,1.66-11.51-1.95-.32-2.93-.48-4.9-.78,.5-3.6,.76-5.39,1.25-8.98,1.98,.3,2.96,.46,4.94,.78,.51-3.56,.77-5.34,1.28-8.9,4.79,.78,7.18,1.18,11.97,2.01-.56,3.56-.85,5.34-1.41,8.89,3.1,.54,4.64,.83,7.72,1.39-.59,3.58-.89,5.37-1.48,8.93-3.07-.56-4.59-.85-7.66-1.39-.71,4.54-1.07,6.81-1.78,11.35-.39,2.52,.79,4.16,2.86,4.52,1.27,.22,2.61,.08,3.7-.43,.6,3.61,.89,5.39,1.47,8.95Z"/><path class="cls-1" d="M554.61,162.73c1.74-10.26,11.03-16.06,22.03-13.71,11.14,2.37,17.47,11.51,15.32,21.67-2.16,10.23-11.29,15.69-22,13.41-10.59-2.24-17.11-11.04-15.35-21.37Zm25.67,5.29c1.01-5.13-1.42-8.68-5.42-9.52-3.94-.85-7.56,1.42-8.49,6.57-.95,5.21,1.54,8.77,5.41,9.6,3.93,.82,7.48-1.45,8.51-6.65Z"/></g></g></svg>