<?xml version="1.0" encoding="utf-8"?>
<!-- Generator: Adobe Illustrator 27.0.0, SVG Export Plug-In . SVG Version: 6.00 Build 0)  -->
<svg version="1.1" xmlns="http://www.w3.org/2000/svg" xmlns:xlink="http://www.w3.org/1999/xlink" x="0px" y="0px"
	 viewBox="0 0 792 612" style="enable-background:new 0 0 792 612;" xml:space="preserve">
<style type="text/css">
	.st0{display:none;}
	.st1{display:inline;}
	.st2{fill:#FFFFFF;}
	.st3{fill:url(#SVGID_1_);}
</style>
<g id="Layer_2" class="st0">
	<rect x="0.94" y="-0.33" class="st1" width="792.36" height="611.81"/>
</g>
<g id="Layer_1">
	<g>
		<path class="st2" d="M303.93,238.7c0.07,0.29,0.07,0.5,0.07,0.78v0.29c0,1.43-0.37,2.71-0.9,4c-0.52,1.21-1.12,2.35-1.79,3.42
			c-1.27,2.14-3.51,4.85-6.05,7.56c-2.99,3.14-6.35,6.28-8.81,8.27c-3.06,2.43-6.35,4.78-9.86,5.99c-1.49,0.5-2.99,0.86-4.63,0.86
			c-2.24,0-4.63-0.64-7.1-2.14c-3.29-1.93-5.53-4.71-6.8-7.85c-0.82-2-1.2-4.07-1.2-6.21c0-1.5,0.15-2.92,0.52-4.42
			c0.52-2.07,1.27-4,2.24-5.78c0.97-1.85,2.02-3.57,3.21-5.28c0.75-1.14,1.49-2.21,2.32-3.35c0.82-1.07,1.72-2.14,2.69-3.14
			c0.15-0.14,0.22-0.29,0.22-0.29c0-0.07-0.07-0.14-0.22-0.36c-0.37-0.5-0.82-1.07-1.27-1.71c-0.37-0.57-0.75-1.21-1.12-1.85
			c-0.9-2-1.27-3.85-1.27-5.71v-0.5c0.15-2.14,0.9-4.21,2.02-6.28c1.94-3.35,4.33-6.21,7.17-8.56c2.91-2.5,6.35-4.49,10.08-6.13
			c1.72-0.71,3.59-1.28,5.45-1.57c1.12-0.21,2.32-0.29,3.36-0.29c1.57,0,2.99,0.21,4.33,0.64c2.39,0.86,4.41,2.43,5.6,5.06
			c0.37,0.86,0.67,1.85,0.9,2.92c0.07,0.21,0.07,0.43,0.07,0.71c0,0.57-0.15,1.21-0.37,1.71c-0.37,0.79-0.97,1.43-1.79,1.71
			c-0.22,0.07-0.45,0.07-0.67,0.07c-0.67,0-1.42-0.21-2.09-0.64c-0.82-0.5-1.64-1.21-1.87-2c-0.15-0.29-0.15-0.57-0.22-0.93
			c0-0.07,0.07-0.14,0.07-0.14v-0.07c-0.07-0.07-0.22-0.07-0.3-0.07c-0.3,0-0.67,0.07-0.97,0.14l-0.3,0.07
			c-2.09,0.5-4.11,1.14-6.05,2.07c-1.94,0.86-3.73,1.93-5.53,3.07c-2.32,1.5-4.93,3.85-6.95,6.49c-1.79,2.21-3.14,4.64-3.66,6.85
			c-0.07,0.43-0.07,0.71-0.07,0.78c0.07,0.07,0.22,0.07,0.52,0.07h0.37c0.9-0.07,1.64-0.21,2.32-0.43c0.82-0.21,1.64-0.5,2.46-0.5
			c1.49,0,3.21,0.86,5.68,3.78c0.82,0.93,1.2,1.78,1.2,2.5c0,0.14,0,0.36-0.07,0.5c-0.3,0.93-1.12,1.57-2.69,2
			c-0.15,0.07-0.37,0.14-0.6,0.21c-0.45,0.14-0.9,0.29-1.42,0.36c-1.05,0.14-1.87,0.5-2.61,1c-0.82,0.5-1.49,1.21-2.17,1.93
			c-1.57,1.85-3.06,3.71-4.41,5.64c-1.34,1.93-2.54,3.92-3.58,5.99c-0.9,1.71-1.42,3.35-1.64,5.14c-0.07,0.71-0.15,1.43-0.15,2.21
			c0,1,0.07,2.07,0.22,3.14c0.15,0.78,0.37,1.28,0.75,1.5c0.15,0.07,0.37,0.14,0.67,0.14s0.67-0.07,1.12-0.21
			c3.66-1.07,9.78-4.92,15.76-9.34c7.02-5.14,13.74-10.99,16.13-14.12c0.22-0.29,0.45-0.57,0.82-0.78c0.3-0.14,0.6-0.29,0.97-0.29
			c0.3,0,0.52,0.07,0.82,0.21C303.48,237.84,303.78,238.2,303.93,238.7z M314.76,253.32c1.19-0.43,1.34-1.57,1.34-2.71v-1.35
			c-0.07-1.28-0.15-2.64-0.15-4c0-13.48,3.81-28.46,6.35-41.37v-0.07c0-2.14-4.26-5.06-6.65-5.06h-0.37
			c-0.75,0.14-0.97,0.57-1.12,1.14c-2.76,8.99-6.57,30.03-6.57,42.02c0,2.28,0.15,4.14,0.45,5.64c0.37,1.71,1.19,3.21,2.24,4.57
			c0.67,0.71,2.46,1.36,3.66,1.36C314.24,253.47,314.54,253.4,314.76,253.32z M321.78,239.06c0-4.49,1.57-8.85,3.88-13.13
			c1.72-3.14,4.26-5.49,7.17-7.56c2.84-2.07,5.53-2.92,7.84-2.92c5.53,0,9.11,4.78,9.11,9.7c0,5.21-4.11,10.56-14.49,10.56
			c-1.49,0-3.21-0.07-5.08-0.36c-1.05,3.64-1.42,5.28-1.42,7.13c0,0.86,0.07,1.85,0.22,3.14c0.3,3.14,1.72,4.28,3.66,4.28
			c4.71,0,12.4-6.85,14.79-8.42c0.22-0.14,0.52-0.43,0.82-0.43c0.07,0,0.22,0.07,0.37,0.21s0.22,0.29,0.22,0.5s-0.07,0.5-0.15,0.71
			c-0.67,2.85-4.26,9.99-10.08,12.27c-1.12,0.64-2.24,0.93-3.44,0.93c-0.97,0-1.94-0.14-2.91-0.43c-4.41-1.21-7.02-4.21-8.74-8.06
			C322.31,244.41,321.78,241.7,321.78,239.06z M334.26,229.43c0,0.14,0,0.21,0.07,0.29c0.22,0.36,0.6,0.5,1.05,0.5
			c0.37,0,0.82-0.14,1.2-0.14c3.58-0.29,7.02-2.5,9.04-5.28c0.15-0.36,0.22-0.64,0.22-0.86c0-0.71-0.52-1.14-1.49-1.14
			c-0.3,0-0.6,0.07-0.9,0.14s-0.6,0.14-0.82,0.21C340.83,223.58,334.26,227.71,334.26,229.43z M393.19,247.9
			c1.57-4.92,3.29-17.48,3.96-22.83c0.08-0.57,0.15-1.07,0.15-1.57c0-1.85-0.82-2.71-3.14-3.78c-1.42-0.64-2.46-1.21-3.29-1.21
			c-0.9,0-1.64,0.57-2.54,2.28c-1.87,3.5-3.51,7.06-5.53,10.49c-1.64,2.85-2.99,5.78-4.41,8.7v-0.5c0-2.57,1.72-10.7,2.09-13.13
			c0-0.21,0.07-0.5,0.07-0.71c0-1.14-0.52-2.07-1.49-2.85c-1.05-0.86-2.32-1.43-3.66-1.78c-0.45-0.14-0.82-0.21-1.12-0.21
			c-1.27,0-1.87,0.86-2.99,2.64c0,0-8.37,14.05-10.16,15.05c0.9-3.42,1.49-7.28,2.02-10.77c0-0.29,0.07-0.5,0.07-0.78
			c0-3.14-2.61-5.64-5.9-5.78h-0.3c-1.42,0-2.17,0.57-2.24,2c-0.37,6.92-2.99,17.19-4.41,24.18c-0.07,0.43-0.15,0.78-0.15,1.21
			c0,1.43,0.75,2.57,2.09,3.57c0.97,0.64,2.09,1.07,3.21,1.36c0.6,0.21,1.12,0.29,1.57,0.29c0.82,0,1.42-0.43,2.17-1.57
			c1.2-1.93,2.39-3.85,3.51-5.85c0.82-1.64,6.27-11.41,7.47-12.27c0.07,0.07,0.07,0.29,0.07,0.64c0,2.28-1.64,9.92-1.87,11.48
			c0,0.29-0.07,0.64-0.07,0.93c0,2.78,1.57,4.64,4.71,5.42c0.45,0.14,0.9,0.14,1.19,0.14c0.6,0,1.05-0.14,1.42-0.43
			c1.34-1.07,8.74-14.7,10.53-18.33c0.15,0.21,0.22,0.43,0.22,0.57c0,0.29-0.07,0.5-0.15,0.78c-0.67,2.85-1.12,5.71-1.49,8.7
			c0,0.29-0.07,0.64-0.07,0.93c0,1.78,0.6,3.21,2.17,4.14c1.05,0.57,2.17,1,3.29,1C391.55,250.04,392.67,249.4,393.19,247.9z
			 M402.38,247.19c-1.27-2.78-1.79-5.49-1.79-8.13c0-4.49,1.57-8.85,3.88-13.13c1.72-3.14,4.26-5.49,7.17-7.56
			c2.84-2.07,5.53-2.92,7.84-2.92c5.53,0,9.11,4.78,9.11,9.7c0,5.21-4.11,10.56-14.49,10.56c-1.49,0-3.21-0.07-5.08-0.36
			c-1.05,3.64-1.42,5.28-1.42,7.13c0,0.86,0.07,1.85,0.22,3.14c0.3,3.14,1.72,4.28,3.66,4.28c4.71,0,12.4-6.85,14.79-8.42
			c0.22-0.14,0.52-0.43,0.82-0.43c0.08,0,0.22,0.07,0.37,0.21s0.22,0.29,0.22,0.5s-0.07,0.5-0.15,0.71
			c-0.67,2.85-4.26,9.99-10.08,12.27c-1.12,0.64-2.24,0.93-3.44,0.93c-0.97,0-1.94-0.14-2.91-0.43
			C406.71,254.04,404.1,251.04,402.38,247.19z M413.06,229.43c0,0.14,0,0.21,0.08,0.29c0.22,0.36,0.6,0.5,1.04,0.5
			c0.37,0,0.82-0.14,1.2-0.14c3.58-0.29,7.02-2.5,9.04-5.28c0.15-0.36,0.22-0.64,0.22-0.86c0-0.71-0.52-1.14-1.49-1.14
			c-0.3,0-0.6,0.07-0.9,0.14s-0.6,0.14-0.82,0.21C419.63,223.58,413.06,227.71,413.06,229.43z M435.24,252.47
			c0.37,0.14,0.82,0.21,1.27,0.21s0.9-0.14,1.2-0.5c5-6.85,8.59-13.34,13.37-19.9c0.15,0.07,0.3,0.07,0.52,0.14
			c-0.15,0.93-0.3,1.93-0.45,2.85c-0.75,3.78-1.42,7.63-2.24,11.41c-0.08,0.57-0.15,1.14-0.15,1.64c0,1,0.15,1.93,0.6,2.85
			c0.6,1.43,2.24,2.28,4.56,2.78h0.37c1.64-0.14,2.31-1.21,3.06-2.57c1.12-2,1.64-3.71,2.02-5.49c1.27-6.42,1.87-13.34,3.21-19.76
			c0-0.14,0.08-0.29,0.08-0.43c0-2.43-3.66-4.85-6.42-5.28c-0.52-0.21-0.97-0.29-1.34-0.29c-0.67,0-1.12,0.43-1.57,1.43
			c-1.34,2.85-10.31,15.98-11.43,15.98c0-0.14,2.09-11.77,2.17-12.2c0.08-0.5,0.15-0.93,0.15-1.35c0-3.42-3.06-4.92-7.1-4.78
			c-1.05,0-1.64,0.29-1.79,1.36c-0.6,4.49-4.03,21.69-5.23,25.68c-0.22,0.64-0.3,1.21-0.3,1.78
			C429.79,250.68,431.96,252.04,435.24,252.47z M492.38,213.09h1.34c0.6,0,1.12-0.14,1.42-0.71c0.07-0.21,0.15-0.43,0.15-0.64
			c0-1.07-0.82-2.28-2.17-2.28h-0.22c-2.17-0.14-7.25-0.5-7.25-2.78v-0.07c0-0.29,0.08-0.57,0.08-0.86c0-5.21-4.63-7.49-7.25-7.49
			c-1.05,0-1.72,0.36-1.72,1v0.57c0,3-1.27,9.2-4.48,9.84c-2.61,0.57-5.23,1.5-7.92,1.71c-0.6,0.07-0.9,0.29-0.9,0.71
			c0,0.21,0.08,0.43,0.22,0.64c1.42,2.43,3.88,3.78,7.1,3.78h0.37c0.6,0,0.97,0.36,0.97,0.93c0,0.14,0,0.29-0.08,0.43
			c-0.07,0.36-0.15,0.71-0.3,1c-1.34,4.07-4.71,22.76-4.71,29.03v1c0.3,2.78,3.29,4.78,5.97,5.49c0.6,0.14,1.05,0.21,1.42,0.21
			c0.97,0,1.27-0.57,1.57-2.07c1.94-11.98,2.69-25.75,7.39-37.17c0.45-0.93,0.97-1.28,1.94-1.43
			C487.68,213.59,489.99,213.09,492.38,213.09z M517.4,226.86c0.82,0.78,1.12,1.5,1.12,2.43c0,0.29,0,0.57-0.07,0.86
			c-1.79,7.49-5,15.05-5.38,22.9c-0.08,1-0.22,2.21-1.42,2.64c-0.3,0.14-0.67,0.14-0.97,0.14c-0.82,0-1.64-0.36-2.32-0.93
			c-2.24-1.85-2.84-4.35-3.06-6.99v-4.21c-1.87,2.92-5.83,7.85-8.89,9.63c-0.82,0.5-1.72,0.71-2.54,0.71c-1.19,0-2.39-0.43-3.51-1
			c-4.03-2.21-5.98-5.64-5.98-10.06v-0.21c0.15-7.2,2.46-13.62,7.32-19.19c1.12-1.21,2.46-2.21,3.81-3.14
			c1.72-1.14,3.36-1.57,5-1.57c2.39,0,4.71,0.93,7.02,2.14C510.53,222.51,515.31,224.86,517.4,226.86z M507.92,227.22
			c0-0.21-0.07-0.5-0.37-0.78c-0.67-0.71-1.34-1-1.94-1c-1.49,0-2.99,1.5-4.33,2.78c-3.81,3.71-6.27,8.27-7.69,13.27
			c-0.37,1.14-0.67,2.43-0.67,3.78v0.43c1.27-0.21,12.4-15.12,14.49-17.41C507.69,227.93,507.92,227.64,507.92,227.22z
			 M536.23,203.82c0-2.14-4.26-5.06-6.65-5.06h-0.37c-0.75,0.14-0.97,0.57-1.12,1.14c-2.76,8.99-6.57,30.03-6.57,42.02
			c0,2.28,0.15,4.14,0.45,5.64c0.37,1.71,1.2,3.21,2.24,4.57c0.67,0.71,2.46,1.36,3.66,1.36c0.3,0,0.6-0.07,0.82-0.14
			c1.2-0.43,1.34-1.57,1.34-2.71v-1.35c-0.08-1.28-0.15-2.64-0.15-4c0-13.48,3.81-28.46,6.35-41.37V203.82z M357.08,271.11
			c-1.49-1-3.21-1.5-4.85-2c-0.37-0.14-0.67-0.14-0.9-0.14c-0.75,0-1.12,0.43-1.64,1.36c-3.96,6.71-7.77,12.63-11.2,19.62
			c-1.49-4.57-1.64-9.42-2.91-13.62c-1.34-4.28-5.38-7.7-9.71-8.06c-0.37-0.07-0.67-0.07-0.97-0.07c-1.34,0-1.72,0.5-1.87,2.21
			c-0.3,3-1.34,5.78-2.24,8.56c-1.57,5.42-8.51,28.82-9.11,38.88c-0.07,0.79-0.07,1.57-0.07,2.21c0,3.42,0.82,5.28,4.93,5.28
			c0.52,0,1.05,0,1.57-0.07c1.49-0.07,1.49-1.57,1.72-2.64c0.6-2.14,0.97-4.42,1.57-6.56c0.52-1.78,6.5-27.46,6.57-27.53
			c0.22,0.93,0.37,1.71,0.6,2.43c0.67,2.78,1.34,5.56,2.24,8.35c1.05,3,4.63,4.99,7.84,4.99c0.3,0,0.67,0,0.97-0.07
			c1.05-0.14,1.42-0.64,1.42-1.5l-0.22-1.71c-0.07-0.29-0.07-0.57-0.07-0.86c0-0.5,0.07-0.93,0.3-1.43
			c2.39-5.35,4.41-10.84,7.62-16.26c0,0.07,0.07,0.21,0.07,0.5c0,3.07-2.69,18.4-3.14,20.83c-0.52,2.71-0.9,9.13-0.9,11.91v0.21
			c0,2.07,0.97,3.64,2.84,4.71c1.34,0.71,2.84,1.14,4.41,1.36c0.22,0,0.52,0.07,0.67,0.07c1.27,0,1.72-0.57,1.94-2.07
			c0.15-1.57,0.07-3.07,0.22-4.64c1.05-15.12,4.41-27.39,5.08-38.38v-0.57C359.84,274.17,359.02,272.39,357.08,271.11z
			 M370.45,304.35c-1.05,3.64-1.42,5.28-1.42,7.13c0,0.86,0.07,1.85,0.22,3.14c0.3,3.14,1.72,4.28,3.66,4.28
			c4.71,0,12.4-6.85,14.79-8.42c0.22-0.14,0.52-0.43,0.82-0.43c0.07,0,0.22,0.07,0.37,0.21s0.22,0.29,0.22,0.5s-0.07,0.5-0.15,0.71
			c-0.67,2.85-4.26,9.99-10.08,12.27c-1.12,0.64-2.24,0.93-3.44,0.93c-0.97,0-1.94-0.14-2.91-0.43c-4.41-1.21-7.02-4.21-8.74-8.06
			c-1.27-2.78-1.79-5.49-1.79-8.13c0-4.49,1.57-8.85,3.88-13.13c1.72-3.14,4.26-5.49,7.17-7.56c2.84-2.07,5.53-2.92,7.84-2.92
			c5.53,0,9.11,4.78,9.11,9.7c0,5.21-4.11,10.56-14.49,10.56C374.03,304.7,372.31,304.63,370.45,304.35z M374.48,298.43
			c0,0.14,0,0.21,0.07,0.29c0.22,0.36,0.6,0.5,1.05,0.5c0.37,0,0.82-0.14,1.2-0.14c3.58-0.29,7.02-2.5,9.04-5.28
			c0.15-0.36,0.22-0.64,0.22-0.86c0-0.71-0.52-1.14-1.49-1.14c-0.3,0-0.6,0.07-0.9,0.14s-0.6,0.14-0.82,0.21
			C381.05,292.58,374.48,296.71,374.48,298.43z M428.48,272.82c-0.82,4.42-2.76,13.05-8.07,42.87l-0.52,4.49
			c-0.15,1.21-0.9,1.78-2.09,1.78c-0.15,0-0.3,0-0.52-0.07c-2.46-0.36-4.11-2.07-4.56-4.64c-0.3-1.21-0.52-2.5-0.67-3.71
			c-2.32,3.5-4.78,9.49-9.41,9.49c-0.75,0-1.49-0.14-2.39-0.43c-4.03-1.5-6.95-4.28-7.84-8.56c-0.22-1-0.3-2-0.3-2.92
			c0-1.43,0.15-2.78,0.52-4.07c1.57-7.06,4.11-13.7,8.96-19.47c1.05-1.21,2.17-2.21,3.58-3.07c1.42-0.93,3.44-1.43,5.45-1.43
			c2.17,0,4.33,0.57,5.6,1.78l4.93-17.98c0.37-1,0.82-1.5,1.64-1.5c0.22,0,0.52,0,0.9,0.14c2.61,0.71,4.86,3.71,4.86,6.42
			C428.56,272.25,428.56,272.53,428.48,272.82z M414.67,290.58c0-0.64-0.67-1.14-1.42-1.14c-0.22,0-0.45,0.07-0.6,0.14
			c-2.76,1.5-5.75,7.2-7.1,9.84c-2.17,4.49-3.51,9.27-4.41,14.12c-0.07,0.29-0.15,0.64-0.15,1s0.08,0.71,0.3,1.14
			c5.9-6.71,11.43-16.34,13.29-24.9L414.67,290.58z M434.23,285.44c-0.6-0.14-1.05-0.29-1.42-0.21c-0.97,0.07-1.42,0.78-1.34,2.14
			c0.15,3-4.11,19.55-4.63,25.25c-0.15,1.5-0.37,3.35-0.22,5.06c0.07,1.85,0.6,3.57,2.02,4.71c1.87,1.5,3.14,2.07,4.03,2
			c1.79-0.14,2.32-2.57,2.76-5.49c1.57-9.13,3.58-18.26,4.56-27.39c0-0.36,0-0.64,0-0.93C439.76,287.73,436.92,286.37,434.23,285.44
			z M440.81,276.1c-0.67-1.78-3.96-4.07-5.83-4.07h-0.3c-0.9,0.07-1.34,0.5-1.42,1.5c-0.15,2.21-0.15,4.35-0.15,5.99
			c0.22,3.42,1.04,4.35,3.58,4.57h0.45c0.75-0.07,1.34-0.29,1.79-1.07c0.9-1.64,1.57-3.28,2.09-5.06c0-0.29,0.08-0.57,0-0.86
			C441.03,276.74,440.96,276.38,440.81,276.1z M475.39,295.86c0.82,0.78,1.12,1.5,1.12,2.43c0,0.29,0,0.57-0.07,0.86
			c-1.79,7.49-5,15.05-5.38,22.9c-0.08,1-0.22,2.21-1.42,2.64c-0.3,0.14-0.67,0.14-0.97,0.14c-0.82,0-1.64-0.36-2.32-0.93
			c-2.24-1.85-2.84-4.35-3.06-6.99v-4.21c-1.87,2.92-5.83,7.85-8.89,9.63c-0.82,0.5-1.72,0.71-2.54,0.71c-1.2,0-2.39-0.43-3.51-1
			c-4.03-2.21-5.98-5.64-5.98-10.06v-0.21c0.15-7.2,2.46-13.62,7.32-19.19c1.12-1.21,2.46-2.21,3.81-3.14
			c1.72-1.14,3.36-1.57,5-1.57c2.39,0,4.71,0.93,7.02,2.14C468.52,291.51,473.3,293.86,475.39,295.86z M465.9,296.22
			c0-0.21-0.07-0.5-0.37-0.78c-0.67-0.71-1.34-1-1.94-1c-1.49,0-2.99,1.5-4.33,2.78c-3.81,3.71-6.27,8.27-7.69,13.27
			c-0.37,1.14-0.67,2.43-0.67,3.78v0.43c1.27-0.21,12.4-15.12,14.49-17.41C465.68,296.93,465.9,296.64,465.9,296.22z"/>
		<linearGradient id="SVGID_1_" gradientUnits="userSpaceOnUse" x1="256.877" y1="261.7864" x2="536.2256" y2="261.7864">
			<stop  offset="0" style="stop-color:#81D0D4"/>
			<stop  offset="1" style="stop-color:#575FAB"/>
		</linearGradient>
		<path class="st3" d="M303.93,238.7c0.07,0.29,0.07,0.5,0.07,0.78v0.29c0,1.43-0.37,2.71-0.9,4c-0.52,1.21-1.12,2.35-1.79,3.42
			c-1.27,2.14-3.51,4.85-6.05,7.56c-2.99,3.14-6.35,6.28-8.81,8.27c-3.06,2.43-6.35,4.78-9.86,5.99c-1.49,0.5-2.99,0.86-4.63,0.86
			c-2.24,0-4.63-0.64-7.1-2.14c-3.29-1.93-5.53-4.71-6.8-7.85c-0.82-2-1.2-4.07-1.2-6.21c0-1.5,0.15-2.92,0.52-4.42
			c0.52-2.07,1.27-4,2.24-5.78c0.97-1.85,2.02-3.57,3.21-5.28c0.75-1.14,1.49-2.21,2.32-3.35c0.82-1.07,1.72-2.14,2.69-3.14
			c0.15-0.14,0.22-0.29,0.22-0.29c0-0.07-0.07-0.14-0.22-0.36c-0.37-0.5-0.82-1.07-1.27-1.71c-0.37-0.57-0.75-1.21-1.12-1.85
			c-0.9-2-1.27-3.85-1.27-5.71v-0.5c0.15-2.14,0.9-4.21,2.02-6.28c1.94-3.35,4.33-6.21,7.17-8.56c2.91-2.5,6.35-4.49,10.08-6.13
			c1.72-0.71,3.59-1.28,5.45-1.57c1.12-0.21,2.32-0.29,3.36-0.29c1.57,0,2.99,0.21,4.33,0.64c2.39,0.86,4.41,2.43,5.6,5.06
			c0.37,0.86,0.67,1.85,0.9,2.92c0.07,0.21,0.07,0.43,0.07,0.71c0,0.57-0.15,1.21-0.37,1.71c-0.37,0.79-0.97,1.43-1.79,1.71
			c-0.22,0.07-0.45,0.07-0.67,0.07c-0.67,0-1.42-0.21-2.09-0.64c-0.82-0.5-1.64-1.21-1.87-2c-0.15-0.29-0.15-0.57-0.22-0.93
			c0-0.07,0.07-0.14,0.07-0.14v-0.07c-0.07-0.07-0.22-0.07-0.3-0.07c-0.3,0-0.67,0.07-0.97,0.14l-0.3,0.07
			c-2.09,0.5-4.11,1.14-6.05,2.07c-1.94,0.86-3.73,1.93-5.53,3.07c-2.32,1.5-4.93,3.85-6.95,6.49c-1.79,2.21-3.14,4.64-3.66,6.85
			c-0.07,0.43-0.07,0.71-0.07,0.78c0.07,0.07,0.22,0.07,0.52,0.07h0.37c0.9-0.07,1.64-0.21,2.32-0.43c0.82-0.21,1.64-0.5,2.46-0.5
			c1.49,0,3.21,0.86,5.68,3.78c0.82,0.93,1.2,1.78,1.2,2.5c0,0.14,0,0.36-0.07,0.5c-0.3,0.93-1.12,1.57-2.69,2
			c-0.15,0.07-0.37,0.14-0.6,0.21c-0.45,0.14-0.9,0.29-1.42,0.36c-1.05,0.14-1.87,0.5-2.61,1c-0.82,0.5-1.49,1.21-2.17,1.93
			c-1.57,1.85-3.06,3.71-4.41,5.64c-1.34,1.93-2.54,3.92-3.58,5.99c-0.9,1.71-1.42,3.35-1.64,5.14c-0.07,0.71-0.15,1.43-0.15,2.21
			c0,1,0.07,2.07,0.22,3.14c0.15,0.78,0.37,1.28,0.75,1.5c0.15,0.07,0.37,0.14,0.67,0.14s0.67-0.07,1.12-0.21
			c3.66-1.07,9.78-4.92,15.76-9.34c7.02-5.14,13.74-10.99,16.13-14.12c0.22-0.29,0.45-0.57,0.82-0.78c0.3-0.14,0.6-0.29,0.97-0.29
			c0.3,0,0.52,0.07,0.82,0.21C303.48,237.84,303.78,238.2,303.93,238.7z M314.76,253.32c1.19-0.43,1.34-1.57,1.34-2.71v-1.35
			c-0.07-1.28-0.15-2.64-0.15-4c0-13.48,3.81-28.46,6.35-41.37v-0.07c0-2.14-4.26-5.06-6.65-5.06h-0.37
			c-0.75,0.14-0.97,0.57-1.12,1.14c-2.76,8.99-6.57,30.03-6.57,42.02c0,2.28,0.15,4.14,0.45,5.64c0.37,1.71,1.19,3.21,2.24,4.57
			c0.67,0.71,2.46,1.36,3.66,1.36C314.24,253.47,314.54,253.4,314.76,253.32z M321.78,239.06c0-4.49,1.57-8.85,3.88-13.13
			c1.72-3.14,4.26-5.49,7.17-7.56c2.84-2.07,5.53-2.92,7.84-2.92c5.53,0,9.11,4.78,9.11,9.7c0,5.21-4.11,10.56-14.49,10.56
			c-1.49,0-3.21-0.07-5.08-0.36c-1.05,3.64-1.42,5.28-1.42,7.13c0,0.86,0.07,1.85,0.22,3.14c0.3,3.14,1.72,4.28,3.66,4.28
			c4.71,0,12.4-6.85,14.79-8.42c0.22-0.14,0.52-0.43,0.82-0.43c0.07,0,0.22,0.07,0.37,0.21s0.22,0.29,0.22,0.5s-0.07,0.5-0.15,0.71
			c-0.67,2.85-4.26,9.99-10.08,12.27c-1.12,0.64-2.24,0.93-3.44,0.93c-0.97,0-1.94-0.14-2.91-0.43c-4.41-1.21-7.02-4.21-8.74-8.06
			C322.31,244.41,321.78,241.7,321.78,239.06z M334.26,229.43c0,0.14,0,0.21,0.07,0.29c0.22,0.36,0.6,0.5,1.05,0.5
			c0.37,0,0.82-0.14,1.2-0.14c3.58-0.29,7.02-2.5,9.04-5.28c0.15-0.36,0.22-0.64,0.22-0.86c0-0.71-0.52-1.14-1.49-1.14
			c-0.3,0-0.6,0.07-0.9,0.14s-0.6,0.14-0.82,0.21C340.83,223.58,334.26,227.71,334.26,229.43z M393.19,247.9
			c1.57-4.92,3.29-17.48,3.96-22.83c0.08-0.57,0.15-1.07,0.15-1.57c0-1.85-0.82-2.71-3.14-3.78c-1.42-0.64-2.46-1.21-3.29-1.21
			c-0.9,0-1.64,0.57-2.54,2.28c-1.87,3.5-3.51,7.06-5.53,10.49c-1.64,2.85-2.99,5.78-4.41,8.7v-0.5c0-2.57,1.72-10.7,2.09-13.13
			c0-0.21,0.07-0.5,0.07-0.71c0-1.14-0.52-2.07-1.49-2.85c-1.05-0.86-2.32-1.43-3.66-1.78c-0.45-0.14-0.82-0.21-1.12-0.21
			c-1.27,0-1.87,0.86-2.99,2.64c0,0-8.37,14.05-10.16,15.05c0.9-3.42,1.49-7.28,2.02-10.77c0-0.29,0.07-0.5,0.07-0.78
			c0-3.14-2.61-5.64-5.9-5.78h-0.3c-1.42,0-2.17,0.57-2.24,2c-0.37,6.92-2.99,17.19-4.41,24.18c-0.07,0.43-0.15,0.78-0.15,1.21
			c0,1.43,0.75,2.57,2.09,3.57c0.97,0.64,2.09,1.07,3.21,1.36c0.6,0.21,1.12,0.29,1.57,0.29c0.82,0,1.42-0.43,2.17-1.57
			c1.2-1.93,2.39-3.85,3.51-5.85c0.82-1.64,6.27-11.41,7.47-12.27c0.07,0.07,0.07,0.29,0.07,0.64c0,2.28-1.64,9.92-1.87,11.48
			c0,0.29-0.07,0.64-0.07,0.93c0,2.78,1.57,4.64,4.71,5.42c0.45,0.14,0.9,0.14,1.19,0.14c0.6,0,1.05-0.14,1.42-0.43
			c1.34-1.07,8.74-14.7,10.53-18.33c0.15,0.21,0.22,0.43,0.22,0.57c0,0.29-0.07,0.5-0.15,0.78c-0.67,2.85-1.12,5.71-1.49,8.7
			c0,0.29-0.07,0.64-0.07,0.93c0,1.78,0.6,3.21,2.17,4.14c1.05,0.57,2.17,1,3.29,1C391.55,250.04,392.67,249.4,393.19,247.9z
			 M402.38,247.19c-1.27-2.78-1.79-5.49-1.79-8.13c0-4.49,1.57-8.85,3.88-13.13c1.72-3.14,4.26-5.49,7.17-7.56
			c2.84-2.07,5.53-2.92,7.84-2.92c5.53,0,9.11,4.78,9.11,9.7c0,5.21-4.11,10.56-14.49,10.56c-1.49,0-3.21-0.07-5.08-0.36
			c-1.05,3.64-1.42,5.28-1.42,7.13c0,0.86,0.07,1.85,0.22,3.14c0.3,3.14,1.72,4.28,3.66,4.28c4.71,0,12.4-6.85,14.79-8.42
			c0.22-0.14,0.52-0.43,0.82-0.43c0.08,0,0.22,0.07,0.37,0.21s0.22,0.29,0.22,0.5s-0.07,0.5-0.15,0.71
			c-0.67,2.85-4.26,9.99-10.08,12.27c-1.12,0.64-2.24,0.93-3.44,0.93c-0.97,0-1.94-0.14-2.91-0.43
			C406.71,254.04,404.1,251.04,402.38,247.19z M413.06,229.43c0,0.14,0,0.21,0.08,0.29c0.22,0.36,0.6,0.5,1.04,0.5
			c0.37,0,0.82-0.14,1.2-0.14c3.58-0.29,7.02-2.5,9.04-5.28c0.15-0.36,0.22-0.64,0.22-0.86c0-0.71-0.52-1.14-1.49-1.14
			c-0.3,0-0.6,0.07-0.9,0.14s-0.6,0.14-0.82,0.21C419.63,223.58,413.06,227.71,413.06,229.43z M435.24,252.47
			c0.37,0.14,0.82,0.21,1.27,0.21s0.9-0.14,1.2-0.5c5-6.85,8.59-13.34,13.37-19.9c0.15,0.07,0.3,0.07,0.52,0.14
			c-0.15,0.93-0.3,1.93-0.45,2.85c-0.75,3.78-1.42,7.63-2.24,11.41c-0.08,0.57-0.15,1.14-0.15,1.64c0,1,0.15,1.93,0.6,2.85
			c0.6,1.43,2.24,2.28,4.56,2.78h0.37c1.64-0.14,2.31-1.21,3.06-2.57c1.12-2,1.64-3.71,2.02-5.49c1.27-6.42,1.87-13.34,3.21-19.76
			c0-0.14,0.08-0.29,0.08-0.43c0-2.43-3.66-4.85-6.42-5.28c-0.52-0.21-0.97-0.29-1.34-0.29c-0.67,0-1.12,0.43-1.57,1.43
			c-1.34,2.85-10.31,15.98-11.43,15.98c0-0.14,2.09-11.77,2.17-12.2c0.08-0.5,0.15-0.93,0.15-1.35c0-3.42-3.06-4.92-7.1-4.78
			c-1.05,0-1.64,0.29-1.79,1.36c-0.6,4.49-4.03,21.69-5.23,25.68c-0.22,0.64-0.3,1.21-0.3,1.78
			C429.79,250.68,431.96,252.04,435.24,252.47z M492.38,213.09h1.34c0.6,0,1.12-0.14,1.42-0.71c0.07-0.21,0.15-0.43,0.15-0.64
			c0-1.07-0.82-2.28-2.17-2.28h-0.22c-2.17-0.14-7.25-0.5-7.25-2.78v-0.07c0-0.29,0.08-0.57,0.08-0.86c0-5.21-4.63-7.49-7.25-7.49
			c-1.05,0-1.72,0.36-1.72,1v0.57c0,3-1.27,9.2-4.48,9.84c-2.61,0.57-5.23,1.5-7.92,1.71c-0.6,0.07-0.9,0.29-0.9,0.71
			c0,0.21,0.08,0.43,0.22,0.64c1.42,2.43,3.88,3.78,7.1,3.78h0.37c0.6,0,0.97,0.36,0.97,0.93c0,0.14,0,0.29-0.08,0.43
			c-0.07,0.36-0.15,0.71-0.3,1c-1.34,4.07-4.71,22.76-4.71,29.03v1c0.3,2.78,3.29,4.78,5.97,5.49c0.6,0.14,1.05,0.21,1.42,0.21
			c0.97,0,1.27-0.57,1.57-2.07c1.94-11.98,2.69-25.75,7.39-37.17c0.45-0.93,0.97-1.28,1.94-1.43
			C487.68,213.59,489.99,213.09,492.38,213.09z M517.4,226.86c0.82,0.78,1.12,1.5,1.12,2.43c0,0.29,0,0.57-0.07,0.86
			c-1.79,7.49-5,15.05-5.38,22.9c-0.08,1-0.22,2.21-1.42,2.64c-0.3,0.14-0.67,0.14-0.97,0.14c-0.82,0-1.64-0.36-2.32-0.93
			c-2.24-1.85-2.84-4.35-3.06-6.99v-4.21c-1.87,2.92-5.83,7.85-8.89,9.63c-0.82,0.5-1.72,0.71-2.54,0.71c-1.19,0-2.39-0.43-3.51-1
			c-4.03-2.21-5.98-5.64-5.98-10.06v-0.21c0.15-7.2,2.46-13.62,7.32-19.19c1.12-1.21,2.46-2.21,3.81-3.14
			c1.72-1.14,3.36-1.57,5-1.57c2.39,0,4.71,0.93,7.02,2.14C510.53,222.51,515.31,224.86,517.4,226.86z M507.92,227.22
			c0-0.21-0.07-0.5-0.37-0.78c-0.67-0.71-1.34-1-1.94-1c-1.49,0-2.99,1.5-4.33,2.78c-3.81,3.71-6.27,8.27-7.69,13.27
			c-0.37,1.14-0.67,2.43-0.67,3.78v0.43c1.27-0.21,12.4-15.12,14.49-17.41C507.69,227.93,507.92,227.64,507.92,227.22z
			 M536.23,203.82c0-2.14-4.26-5.06-6.65-5.06h-0.37c-0.75,0.14-0.97,0.57-1.12,1.14c-2.76,8.99-6.57,30.03-6.57,42.02
			c0,2.28,0.15,4.14,0.45,5.64c0.37,1.71,1.2,3.21,2.24,4.57c0.67,0.71,2.46,1.36,3.66,1.36c0.3,0,0.6-0.07,0.82-0.14
			c1.2-0.43,1.34-1.57,1.34-2.71v-1.35c-0.08-1.28-0.15-2.64-0.15-4c0-13.48,3.81-28.46,6.35-41.37V203.82z M357.08,271.11
			c-1.49-1-3.21-1.5-4.85-2c-0.37-0.14-0.67-0.14-0.9-0.14c-0.75,0-1.12,0.43-1.64,1.36c-3.96,6.71-7.77,12.63-11.2,19.62
			c-1.49-4.57-1.64-9.42-2.91-13.62c-1.34-4.28-5.38-7.7-9.71-8.06c-0.37-0.07-0.67-0.07-0.97-0.07c-1.34,0-1.72,0.5-1.87,2.21
			c-0.3,3-1.34,5.78-2.24,8.56c-1.57,5.42-8.51,28.82-9.11,38.88c-0.07,0.79-0.07,1.57-0.07,2.21c0,3.42,0.82,5.28,4.93,5.28
			c0.52,0,1.05,0,1.57-0.07c1.49-0.07,1.49-1.57,1.72-2.64c0.6-2.14,0.97-4.42,1.57-6.56c0.52-1.78,6.5-27.46,6.57-27.53
			c0.22,0.93,0.37,1.71,0.6,2.43c0.67,2.78,1.34,5.56,2.24,8.35c1.05,3,4.63,4.99,7.84,4.99c0.3,0,0.67,0,0.97-0.07
			c1.05-0.14,1.42-0.64,1.42-1.5l-0.22-1.71c-0.07-0.29-0.07-0.57-0.07-0.86c0-0.5,0.07-0.93,0.3-1.43
			c2.39-5.35,4.41-10.84,7.62-16.26c0,0.07,0.07,0.21,0.07,0.5c0,3.07-2.69,18.4-3.14,20.83c-0.52,2.71-0.9,9.13-0.9,11.91v0.21
			c0,2.07,0.97,3.64,2.84,4.71c1.34,0.71,2.84,1.14,4.41,1.36c0.22,0,0.52,0.07,0.67,0.07c1.27,0,1.72-0.57,1.94-2.07
			c0.15-1.57,0.07-3.07,0.22-4.64c1.05-15.12,4.41-27.39,5.08-38.38v-0.57C359.84,274.17,359.02,272.39,357.08,271.11z
			 M370.45,304.35c-1.05,3.64-1.42,5.28-1.42,7.13c0,0.86,0.07,1.85,0.22,3.14c0.3,3.14,1.72,4.28,3.66,4.28
			c4.71,0,12.4-6.85,14.79-8.42c0.22-0.14,0.52-0.43,0.82-0.43c0.07,0,0.22,0.07,0.37,0.21s0.22,0.29,0.22,0.5s-0.07,0.5-0.15,0.71
			c-0.67,2.85-4.26,9.99-10.08,12.27c-1.12,0.64-2.24,0.93-3.44,0.93c-0.97,0-1.94-0.14-2.91-0.43c-4.41-1.21-7.02-4.21-8.74-8.06
			c-1.27-2.78-1.79-5.49-1.79-8.13c0-4.49,1.57-8.85,3.88-13.13c1.72-3.14,4.26-5.49,7.17-7.56c2.84-2.07,5.53-2.92,7.84-2.92
			c5.53,0,9.11,4.78,9.11,9.7c0,5.21-4.11,10.56-14.49,10.56C374.03,304.7,372.31,304.63,370.45,304.35z M374.48,298.43
			c0,0.14,0,0.21,0.07,0.29c0.22,0.36,0.6,0.5,1.05,0.5c0.37,0,0.82-0.14,1.2-0.14c3.58-0.29,7.02-2.5,9.04-5.28
			c0.15-0.36,0.22-0.64,0.22-0.86c0-0.71-0.52-1.14-1.49-1.14c-0.3,0-0.6,0.07-0.9,0.14s-0.6,0.14-0.82,0.21
			C381.05,292.58,374.48,296.71,374.48,298.43z M428.48,272.82c-0.82,4.42-2.76,13.05-8.07,42.87l-0.52,4.49
			c-0.15,1.21-0.9,1.78-2.09,1.78c-0.15,0-0.3,0-0.52-0.07c-2.46-0.36-4.11-2.07-4.56-4.64c-0.3-1.21-0.52-2.5-0.67-3.71
			c-2.32,3.5-4.78,9.49-9.41,9.49c-0.75,0-1.49-0.14-2.39-0.43c-4.03-1.5-6.95-4.28-7.84-8.56c-0.22-1-0.3-2-0.3-2.92
			c0-1.43,0.15-2.78,0.52-4.07c1.57-7.06,4.11-13.7,8.96-19.47c1.05-1.21,2.17-2.21,3.58-3.07c1.42-0.93,3.44-1.43,5.45-1.43
			c2.17,0,4.33,0.57,5.6,1.78l4.93-17.98c0.37-1,0.82-1.5,1.64-1.5c0.22,0,0.52,0,0.9,0.14c2.61,0.71,4.86,3.71,4.86,6.42
			C428.56,272.25,428.56,272.53,428.48,272.82z M414.67,290.58c0-0.64-0.67-1.14-1.42-1.14c-0.22,0-0.45,0.07-0.6,0.14
			c-2.76,1.5-5.75,7.2-7.1,9.84c-2.17,4.49-3.51,9.27-4.41,14.12c-0.07,0.29-0.15,0.64-0.15,1s0.08,0.71,0.3,1.14
			c5.9-6.71,11.43-16.34,13.29-24.9L414.67,290.58z M434.23,285.44c-0.6-0.14-1.05-0.29-1.42-0.21c-0.97,0.07-1.42,0.78-1.34,2.14
			c0.15,3-4.11,19.55-4.63,25.25c-0.15,1.5-0.37,3.35-0.22,5.06c0.07,1.85,0.6,3.57,2.02,4.71c1.87,1.5,3.14,2.07,4.03,2
			c1.79-0.14,2.32-2.57,2.76-5.49c1.57-9.13,3.58-18.26,4.56-27.39c0-0.36,0-0.64,0-0.93C439.76,287.73,436.92,286.37,434.23,285.44
			z M440.81,276.1c-0.67-1.78-3.96-4.07-5.83-4.07h-0.3c-0.9,0.07-1.34,0.5-1.42,1.5c-0.15,2.21-0.15,4.35-0.15,5.99
			c0.22,3.42,1.04,4.35,3.58,4.57h0.45c0.75-0.07,1.34-0.29,1.79-1.07c0.9-1.64,1.57-3.28,2.09-5.06c0-0.29,0.08-0.57,0-0.86
			C441.03,276.74,440.96,276.38,440.81,276.1z M475.39,295.86c0.82,0.78,1.12,1.5,1.12,2.43c0,0.29,0,0.57-0.07,0.86
			c-1.79,7.49-5,15.05-5.38,22.9c-0.08,1-0.22,2.21-1.42,2.64c-0.3,0.14-0.67,0.14-0.97,0.14c-0.82,0-1.64-0.36-2.32-0.93
			c-2.24-1.85-2.84-4.35-3.06-6.99v-4.21c-1.87,2.92-5.83,7.85-8.89,9.63c-0.82,0.5-1.72,0.71-2.54,0.71c-1.2,0-2.39-0.43-3.51-1
			c-4.03-2.21-5.98-5.64-5.98-10.06v-0.21c0.15-7.2,2.46-13.62,7.32-19.19c1.12-1.21,2.46-2.21,3.81-3.14
			c1.72-1.14,3.36-1.57,5-1.57c2.39,0,4.71,0.93,7.02,2.14C468.52,291.51,473.3,293.86,475.39,295.86z M465.9,296.22
			c0-0.21-0.07-0.5-0.37-0.78c-0.67-0.71-1.34-1-1.94-1c-1.49,0-2.99,1.5-4.33,2.78c-3.81,3.71-6.27,8.27-7.69,13.27
			c-0.37,1.14-0.67,2.43-0.67,3.78v0.43c1.27-0.21,12.4-15.12,14.49-17.41C465.68,296.93,465.9,296.64,465.9,296.22z"/>
	</g>
	<g>
		<g>
			<path class="st2" d="M314.1,139.31c-1.87,9.66-3.59,19.36-5.15,29.07c-3.38,0.53-5.07,0.81-8.45,1.39
				c-3.29-6.35-4.97-9.51-8.38-15.82c-1.07,7.12-1.58,10.68-2.52,17.8c-3.37,0.65-5.05,0.98-8.41,1.68
				c-4.89-8.54-9.92-17.01-15.09-25.39c3.38-0.76,5.07-1.12,8.46-1.83c3.8,6.51,5.67,9.78,9.34,16.34c1-7.49,1.53-11.23,2.67-18.72
				c3.03-0.57,4.55-0.85,7.58-1.38c3.6,6.69,5.36,10.05,8.82,16.8c1.21-7.51,1.85-11.27,3.21-18.78
				C309.35,139.99,310.94,139.75,314.1,139.31z"/>
			<path class="st2" d="M340.07,155.37c-6.42,0.65-9.62,1.02-16.02,1.84c0.93,2.1,2.99,3.12,5.82,2.78
				c2.14-0.26,3.49-1.01,4.85-2.45c1.81,1.47,2.7,2.21,4.49,3.7c-1.86,2.53-4.77,4.04-8.89,4.54c-7.72,0.93-13.38-3.05-14.3-9.46
				c-0.92-6.45,3.69-11.81,10.8-12.68c6.65-0.81,12.47,2.72,13.19,9.84C340.06,154.04,340.05,154.77,340.07,155.37z M323.41,153.26
				c3.63-0.47,5.45-0.69,9.08-1.1c-0.67-2.22-2.56-3.45-4.99-3.16C325.08,149.3,323.57,150.94,323.41,153.26z"/>
			<path class="st2" d="M341.82,134.34c3.2-0.3,4.81-0.45,8.01-0.71c0.81,9.86,1.61,19.72,2.42,29.58
				c-3.05,0.25-4.58,0.38-7.63,0.67C343.69,154.04,342.75,144.19,341.82,134.34z"/>
			<path class="st2" d="M355.01,152.08c-0.49-6.5,4.54-11.56,12.13-11.97c5.13-0.28,9.15,1.77,10.82,5.47
				c-2.39,1.29-3.57,1.94-5.94,3.25c-1.16-1.99-2.78-2.79-4.6-2.69c-2.73,0.15-4.76,2.12-4.56,5.39c0.21,3.35,2.43,5.05,5.11,4.91
				c1.79-0.1,3.28-1.05,4.25-3.14c2.46,1.09,3.68,1.64,6.11,2.75c-1.37,3.81-5.05,6.15-9.99,6.42
				C361.03,162.87,355.5,158.66,355.01,152.08z"/>
			<path class="st2" d="M379.46,150.74c-0.22-6.52,5-11.36,12.4-11.46c7.48-0.1,12.75,4.6,12.7,11.12
				c-0.05,6.56-5.2,11.18-12.4,11.27C385.04,161.77,379.69,157.29,379.46,150.74z M396.69,150.39c-0.02-3.28-2.06-5.11-4.74-5.07
				c-2.65,0.04-4.68,1.92-4.61,5.2c0.07,3.32,2.14,5.15,4.74,5.12C394.72,155.6,396.7,153.71,396.69,150.39z"/>
			<path class="st2" d="M446.19,150.64c-0.38,4.94-0.57,7.42-0.96,12.36c-3.05-0.24-4.58-0.34-7.64-0.54
				c0.29-4.45,0.43-6.68,0.72-11.14c0.2-3.11-1.04-4.52-3.1-4.64c-2.27-0.13-4,1.26-4.17,4.62c-0.22,4.3-0.34,6.45-0.56,10.74
				c-3.06-0.16-4.59-0.23-7.64-0.35c0.17-4.46,0.26-6.69,0.43-11.15c0.12-3.12-1.11-4.49-3.21-4.56c-2.31-0.08-4.01,1.36-4.1,4.72
				c-0.11,4.3-0.17,6.45-0.29,10.75c-3.06-0.08-4.59-0.11-7.65-0.15c0.12-8.67,0.18-13,0.3-21.67c3.02,0.04,4.53,0.07,7.56,0.15
				c-0.02,0.91-0.04,1.37-0.06,2.28c1.75-1.71,4.16-2.52,6.83-2.42c3.09,0.12,5.68,1.32,7.14,3.71c1.89-2.07,4.76-3.16,8.01-2.96
				C443.06,140.72,446.71,143.95,446.19,150.64z"/>
			<path class="st2" d="M473.57,156.9c-6.4-0.8-9.61-1.15-16.03-1.78c0.44,2.25,2.21,3.71,5.05,4.01c2.15,0.23,3.62-0.21,5.27-1.31
				c1.43,1.84,2.14,2.76,3.55,4.61c-2.37,2.05-5.55,2.88-9.68,2.44c-7.73-0.82-12.35-5.95-11.81-12.41
				c0.55-6.5,6.23-10.69,13.34-9.95c6.66,0.7,11.55,5.43,10.66,12.53C473.86,155.61,473.69,156.31,473.57,156.9z M457.81,151.13
				c3.64,0.35,5.46,0.54,9.1,0.95c-0.16-2.31-1.73-3.94-4.16-4.19C460.31,147.64,458.48,148.91,457.81,151.13z"/>
			<path class="st2" d="M502.81,169.45c-1.46,0.59-3.48,0.65-5.47,0.31c-5.53-0.93-8.36-4.1-7.52-9.59c0.44-2.88,0.66-4.32,1.1-7.2
				c-1.29-0.2-1.94-0.3-3.24-0.49c0.33-2.25,0.5-3.37,0.83-5.62c1.31,0.19,1.96,0.29,3.27,0.49c0.34-2.23,0.51-3.34,0.85-5.57
				c3.17,0.49,4.75,0.74,7.92,1.26c-0.37,2.23-0.56,3.34-0.93,5.56c2.05,0.34,3.07,0.52,5.11,0.87c-0.39,2.24-0.59,3.36-0.98,5.59
				c-2.03-0.35-3.04-0.53-5.07-0.87c-0.47,2.84-0.71,4.26-1.18,7.1c-0.26,1.58,0.52,2.6,1.89,2.83c0.84,0.14,1.73,0.05,2.45-0.27
				C502.24,166.11,502.43,167.22,502.81,169.45z"/>
			<path class="st2" d="M505.49,159.77c1.15-6.42,7.3-10.05,14.58-8.58c7.37,1.48,11.56,7.2,10.14,13.56
				c-1.43,6.4-7.47,9.82-14.56,8.39C508.64,171.74,504.33,166.23,505.49,159.77z M522.48,163.08c0.67-3.21-0.94-5.43-3.59-5.96
				c-2.61-0.53-5,0.89-5.62,4.11c-0.63,3.26,1.02,5.49,3.58,6.01C519.45,167.75,521.8,166.33,522.48,163.08z"/>
		</g>
	</g>
</g>
</svg>
