<?xml version="1.0" encoding="UTF-8"?><svg id="Layer_1" xmlns="http://www.w3.org/2000/svg" xmlns:xlink="http://www.w3.org/1999/xlink" viewBox="0 0 792.36 611.81"><defs><style>.cls-1{fill:#fff;}.cls-2{fill:url(#linear-gradient);}</style><linearGradient id="linear-gradient" x1="6.06" y1="204.88" x2="782.06" y2="204.88" gradientTransform="translate(0 612.66) scale(1 -1)" gradientUnits="userSpaceOnUse"><stop offset="0" stop-color="#81d0d4"/><stop offset="1" stop-color="#575fab"/></linearGradient></defs><g id="Layer_1-2"><g><path class="cls-1" d="M136.81,337.05c.19,.89,.19,1.53,.19,2.39v.89c0,4.38-1.03,8.3-2.5,12.25-1.44,3.7-3.11,7.2-4.97,10.47-3.53,6.55-9.75,14.85-16.8,23.15-8.31,9.61-17.64,19.23-24.47,25.32-8.5,7.44-17.64,14.64-27.39,18.34-4.14,1.53-8.31,2.63-12.86,2.63-6.22,0-12.86-1.96-19.72-6.55-9.14-5.91-15.36-14.42-18.89-24.04-2.28-6.12-3.33-12.46-3.33-19.01,0-4.59,.42-8.94,1.44-13.53,1.44-6.34,3.53-12.25,6.22-17.7,2.69-5.66,5.61-10.93,8.92-16.17,2.08-3.49,4.14-6.77,6.44-10.26,2.28-3.28,4.78-6.55,7.47-9.61,.42-.43,.61-.89,.61-.89,0-.21-.19-.43-.61-1.1-1.03-1.53-2.28-3.28-3.53-5.24-1.03-1.75-2.08-3.7-3.11-5.66-2.5-6.12-3.53-11.79-3.53-17.48v-1.53c.42-6.55,2.5-12.89,5.61-19.23,5.39-10.26,12.03-19.01,19.92-26.21,8.08-7.65,17.64-13.75,28-18.77,4.78-2.17,9.97-3.92,15.14-4.81,3.11-.64,6.44-.89,9.33-.89,4.36,0,8.31,.64,12.03,1.96,6.64,2.63,12.25,7.44,15.56,15.49,1.03,2.63,1.86,5.66,2.5,8.94,.19,.64,.19,1.32,.19,2.17,0,1.75-.42,3.7-1.03,5.24-1.03,2.42-2.69,4.38-4.97,5.24-.61,.21-1.25,.21-1.86,.21-1.86,0-3.94-.64-5.81-1.96-2.28-1.53-4.56-3.7-5.19-6.12-.42-.89-.42-1.75-.61-2.85,0-.21,.19-.43,.19-.43v-.21c-.19-.21-.61-.21-.83-.21-.83,0-1.86,.21-2.69,.43l-.83,.21c-5.81,1.53-11.42,3.49-16.8,6.34-5.39,2.63-10.36,5.91-15.36,9.4-6.44,4.59-13.69,11.79-19.3,19.87-4.97,6.77-8.72,14.21-10.17,20.97-.19,1.32-.19,2.17-.19,2.39,.19,.21,.61,.21,1.44,.21h1.03c2.5-.21,4.56-.64,6.44-1.32,2.28-.64,4.56-1.53,6.83-1.53,4.14,0,8.92,2.63,15.78,11.57,2.28,2.85,3.33,5.45,3.33,7.65,0,.43,0,1.1-.19,1.53-.83,2.85-3.11,4.81-7.47,6.12-.42,.21-1.03,.43-1.67,.64-1.25,.43-2.5,.89-3.94,1.1-2.92,.43-5.19,1.53-7.25,3.06-2.28,1.53-4.14,3.7-6.03,5.91-4.36,5.66-8.5,11.36-12.25,17.27-3.72,5.91-7.06,12-9.94,18.34-2.5,5.24-3.94,10.26-4.56,15.74-.19,2.17-.42,4.38-.42,6.77,0,3.06,.19,6.34,.61,9.61,.42,2.39,1.03,3.92,2.08,4.59,.42,.21,1.03,.43,1.86,.43s1.86-.21,3.11-.64c10.17-3.28,27.17-15.06,43.78-28.6,19.5-15.74,38.17-33.65,44.8-43.23,.61-.89,1.25-1.75,2.28-2.39,.83-.43,1.67-.89,2.69-.89,.83,0,1.44,.21,2.28,.64,1.72,.92,2.56,2.02,2.97,3.55Zm30.08,44.77c3.31-1.32,3.72-4.81,3.72-8.3v-4.13c-.19-3.92-.42-8.08-.42-12.25,0-41.27,10.58-87.14,17.64-126.67v-.21c0-6.55-11.83-15.49-18.47-15.49h-1.03c-2.08,.43-2.69,1.75-3.11,3.49-7.67,27.53-18.25,91.95-18.25,128.66,0,6.98,.42,12.68,1.25,17.27,1.03,5.24,3.31,9.83,6.22,13.99,1.86,2.17,6.83,4.16,10.17,4.16,.83-.06,1.67-.28,2.28-.52Zm19.5-43.66c0-13.75,4.36-27.1,10.78-40.2,4.78-9.61,11.83-16.81,19.92-23.15,7.89-6.34,15.36-8.94,21.78-8.94,15.36,0,25.3,14.64,25.3,29.7,0,15.95-11.42,32.33-40.25,32.33-4.14,0-8.92-.21-14.11-1.1-2.92,11.15-3.94,16.17-3.94,21.83,0,2.63,.19,5.66,.61,9.61,.83,9.61,4.78,13.11,10.17,13.11,13.08,0,34.44-20.97,41.08-25.78,.61-.43,1.44-1.32,2.28-1.32,.19,0,.61,.21,1.03,.64s.61,.89,.61,1.53-.19,1.53-.42,2.17c-1.86,8.73-11.83,30.59-28,37.57-3.11,1.96-6.22,2.85-9.56,2.85-2.69,0-5.39-.43-8.08-1.32-12.25-3.7-19.5-12.89-24.28-24.68-3.44-8.48-4.92-16.78-4.92-24.86Zm34.67-29.49c0,.43,0,.64,.19,.89,.61,1.1,1.67,1.53,2.92,1.53,1.03,0,2.28-.43,3.33-.43,9.94-.89,19.5-7.65,25.11-16.17,.42-1.1,.61-1.96,.61-2.63,0-2.17-1.44-3.49-4.14-3.49-.83,0-1.67,.21-2.5,.43s-1.67,.43-2.28,.64c-5,1.32-23.25,13.96-23.25,19.23Zm163.69,56.55c4.36-15.06,9.14-53.52,11-69.9,.22-1.75,.42-3.28,.42-4.81,0-5.66-2.28-8.3-8.72-11.57-3.94-1.96-6.83-3.7-9.14-3.7-2.5,0-4.56,1.75-7.06,6.98-5.19,10.72-9.75,21.62-15.36,32.12-4.56,8.73-8.31,17.7-12.25,26.64v-1.53c0-7.87,4.78-32.76,5.81-40.2,0-.64,.19-1.53,.19-2.17,0-3.49-1.44-6.34-4.14-8.73-2.92-2.63-6.44-4.38-10.17-5.45-1.25-.43-2.28-.64-3.11-.64-3.53,0-5.19,2.63-8.31,8.08,0,0-23.25,43.02-28.22,46.08,2.5-10.47,4.14-22.29,5.61-32.98,0-.89,.19-1.53,.19-2.39,0-9.61-7.25-17.27-16.39-17.7h-.83c-3.94,0-6.03,1.75-6.22,6.12-1.03,21.19-8.31,52.63-12.25,74.04-.19,1.32-.42,2.39-.42,3.7,0,4.38,2.08,7.87,5.81,10.93,2.69,1.96,5.81,3.28,8.92,4.16,1.67,.64,3.11,.89,4.36,.89,2.28,0,3.94-1.32,6.03-4.81,3.33-5.91,6.64-11.79,9.75-17.91,2.28-5.02,17.42-34.94,20.75-37.57,.19,.21,.19,.89,.19,1.96,0,6.98-4.56,30.37-5.19,35.15,0,.89-.19,1.96-.19,2.85,0,8.51,4.36,14.21,13.08,16.6,1.25,.43,2.5,.43,3.31,.43,1.67,0,2.92-.43,3.94-1.32,3.72-3.28,24.28-45.01,29.25-56.12,.42,.64,.61,1.32,.61,1.75,0,.89-.19,1.53-.42,2.39-1.86,8.73-3.11,17.48-4.14,26.64,0,.89-.19,1.96-.19,2.85,0,5.45,1.67,9.83,6.03,12.68,2.92,1.75,6.03,3.06,9.14,3.06,3.78-.03,6.89-1.99,8.33-6.58Zm25.53-2.17c-3.53-8.51-4.97-16.81-4.97-24.89,0-13.75,4.36-27.1,10.78-40.2,4.78-9.61,11.83-16.81,19.92-23.15,7.89-6.34,15.36-8.94,21.78-8.94,15.36,0,25.3,14.64,25.3,29.7,0,15.95-11.42,32.33-40.25,32.33-4.14,0-8.92-.21-14.11-1.1-2.92,11.15-3.94,16.17-3.94,21.83,0,2.63,.19,5.66,.61,9.61,.83,9.61,4.78,13.11,10.17,13.11,13.08,0,34.44-20.97,41.08-25.78,.61-.43,1.44-1.32,2.28-1.32,.22,0,.61,.21,1.03,.64s.61,.89,.61,1.53-.19,1.53-.42,2.17c-1.86,8.73-11.83,30.59-28,37.57-3.11,1.96-6.22,2.85-9.56,2.85-2.69,0-5.39-.43-8.08-1.32-12.19-3.67-19.44-12.86-24.22-24.65Zm29.67-54.38c0,.43,0,.64,.22,.89,.61,1.1,1.67,1.53,2.89,1.53,1.03,0,2.28-.43,3.33-.43,9.94-.89,19.5-7.65,25.11-16.17,.42-1.1,.61-1.96,.61-2.63,0-2.17-1.44-3.49-4.14-3.49-.83,0-1.67,.21-2.5,.43s-1.67,.43-2.28,.64c-5,1.32-23.25,13.96-23.25,19.23Zm61.61,70.55c1.03,.43,2.28,.64,3.53,.64s2.5-.43,3.33-1.53c13.89-20.97,23.86-40.85,37.14-60.93,.42,.21,.83,.21,1.44,.43-.42,2.85-.83,5.91-1.25,8.73-2.08,11.57-3.94,23.36-6.22,34.94-.22,1.75-.42,3.49-.42,5.02,0,3.06,.42,5.91,1.67,8.73,1.67,4.38,6.22,6.98,12.67,8.51h1.03c4.56-.43,6.42-3.7,8.5-7.87,3.11-6.12,4.56-11.36,5.61-16.81,3.53-19.66,5.19-40.85,8.92-60.5,0-.43,.22-.89,.22-1.32,0-7.44-10.17-14.85-17.83-16.17-1.44-.64-2.69-.89-3.72-.89-1.86,0-3.11,1.32-4.36,4.38-3.72,8.73-28.64,48.93-31.75,48.93,0-.43,5.81-36.04,6.03-37.36,.22-1.53,.42-2.85,.42-4.13,0-10.47-8.5-15.06-19.72-14.64-2.92,0-4.56,.89-4.97,4.16-1.67,13.75-11.19,66.41-14.53,78.63-.61,1.96-.83,3.7-.83,5.45-.03,8.11,6,12.28,15.11,13.59Zm158.72-120.58h3.72c1.67,0,3.11-.43,3.94-2.17,.19-.64,.42-1.32,.42-1.96,0-3.28-2.28-6.98-6.03-6.98h-.61c-6.03-.43-20.14-1.53-20.14-8.51v-.21c0-.89,.22-1.75,.22-2.63,0-15.95-12.86-22.93-20.14-22.93-2.92,0-4.78,1.1-4.78,3.06v1.75c0,9.19-3.53,28.17-12.44,30.13-7.25,1.75-14.53,4.59-22,5.24-1.67,.21-2.5,.89-2.5,2.17,0,.64,.22,1.32,.61,1.96,3.94,7.44,10.78,11.57,19.72,11.57h1.03c1.67,0,2.69,1.1,2.69,2.85,0,.43,0,.89-.22,1.32-.19,1.1-.42,2.17-.83,3.06-3.72,12.46-13.08,69.69-13.08,88.89v3.06c.83,8.51,9.14,14.64,16.58,16.81,1.67,.43,2.92,.64,3.94,.64,2.69,0,3.53-1.75,4.36-6.34,5.39-36.68,7.47-78.84,20.53-113.81,1.25-2.85,2.69-3.92,5.39-4.38,6.56-1.04,12.97-2.57,19.61-2.57Zm69.5,42.16c2.28,2.39,3.11,4.59,3.11,7.44,0,.89,0,1.75-.19,2.63-4.97,22.93-13.89,46.08-14.94,70.12-.22,3.06-.61,6.77-3.94,8.08-.83,.43-1.86,.43-2.69,.43-2.28,0-4.56-1.1-6.44-2.85-6.22-5.66-7.89-13.32-8.5-21.4v-12.89c-5.19,8.94-16.19,24.04-24.69,29.49-2.28,1.53-4.78,2.17-7.06,2.17-3.31,0-6.64-1.32-9.75-3.06-11.19-6.77-16.61-17.27-16.61-30.8v-.64c.42-22.05,6.83-41.7,20.33-58.76,3.11-3.7,6.83-6.77,10.58-9.61,4.78-3.49,9.33-4.81,13.89-4.81,6.64,0,13.08,2.85,19.5,6.55,8.33,4.59,21.61,11.79,27.42,17.91Zm-26.33,1.1c0-.64-.19-1.53-1.03-2.39-1.86-2.17-3.72-3.06-5.39-3.06-4.14,0-8.31,4.59-12.03,8.51-10.58,11.36-17.42,25.32-21.36,40.63-1.03,3.49-1.86,7.44-1.86,11.57v1.32c3.53-.64,34.44-46.3,40.25-53.31,.78-1.1,1.42-1.99,1.42-3.28Zm78.64-71.65c0-6.55-11.83-15.49-18.47-15.49h-1.03c-2.08,.43-2.69,1.75-3.11,3.49-7.67,27.53-18.25,91.95-18.25,128.66,0,6.98,.42,12.68,1.25,17.27,1.03,5.24,3.33,9.83,6.22,13.99,1.86,2.17,6.83,4.16,10.17,4.16,.83,0,1.67-.21,2.28-.43,3.33-1.32,3.72-4.81,3.72-8.3v-4.13c-.22-3.92-.42-8.08-.42-12.25,0-41.27,10.58-87.14,17.64-126.67v-.31h0Zm-497.62,206.04c-4.14-3.06-8.92-4.59-13.47-6.12-1.03-.43-1.86-.43-2.5-.43-2.08,0-3.11,1.32-4.56,4.16-11,20.55-21.58,38.67-31.11,60.07-4.14-13.99-4.56-28.84-8.08-41.7-3.72-13.11-14.94-23.58-26.97-24.68-1.03-.21-1.86-.21-2.69-.21-3.72,0-4.78,1.53-5.19,6.77-.83,9.19-3.72,17.7-6.22,26.21-4.36,16.6-23.64,88.24-25.3,119.05-.19,2.42-.19,4.81-.19,6.77,0,10.47,2.28,16.17,13.69,16.17,1.44,0,2.92,0,4.36-.21,4.14-.21,4.14-4.81,4.78-8.08,1.67-6.55,2.69-13.53,4.36-20.09,1.44-5.45,18.05-84.08,18.25-84.29,.61,2.85,1.03,5.24,1.67,7.44,1.86,8.51,3.72,17.02,6.22,25.57,2.92,9.19,12.86,15.28,21.78,15.28,.83,0,1.86,0,2.69-.21,2.92-.43,3.94-1.96,3.94-4.59l-.61-5.24c-.19-.89-.19-1.75-.19-2.63,0-1.53,.19-2.85,.83-4.38,6.64-16.38,12.25-33.19,21.17-49.79,0,.21,.19,.64,.19,1.53,0,9.4-7.47,56.34-8.72,63.78-1.44,8.3-2.5,27.96-2.5,36.47v.64c0,6.34,2.69,11.15,7.89,14.42,3.72,2.17,7.89,3.49,12.25,4.16,.61,0,1.44,.21,1.86,.21,3.53,0,4.78-1.75,5.39-6.34,.42-4.81,.19-9.4,.61-14.21,2.92-46.3,12.25-83.87,14.11-117.52v-1.75c-.06-6.86-2.33-12.31-7.72-16.23Zm37.14,101.78c-2.92,11.15-3.94,16.17-3.94,21.83,0,2.63,.19,5.66,.61,9.61,.83,9.61,4.78,13.11,10.17,13.11,13.08,0,34.44-20.97,41.08-25.78,.61-.43,1.44-1.32,2.28-1.32,.19,0,.61,.21,1.03,.64s.61,.89,.61,1.53-.19,1.53-.42,2.17c-1.86,8.73-11.83,30.59-28,37.57-3.11,1.96-6.22,2.85-9.56,2.85-2.69,0-5.39-.43-8.08-1.32-12.25-3.7-19.5-12.89-24.28-24.68-3.53-8.51-4.97-16.81-4.97-24.89,0-13.75,4.36-27.1,10.78-40.2,4.78-9.61,11.83-16.81,19.92-23.15,7.89-6.34,15.36-8.94,21.78-8.94,15.36,0,25.3,14.64,25.3,29.7,0,15.95-11.42,32.33-40.25,32.33-4.11,0-8.89-.21-14.06-1.07Zm11.19-18.13c0,.43,0,.64,.19,.89,.61,1.1,1.67,1.53,2.92,1.53,1.03,0,2.28-.43,3.33-.43,9.94-.89,19.5-7.65,25.11-16.17,.42-1.1,.61-1.96,.61-2.63,0-2.17-1.44-3.49-4.14-3.49-.83,0-1.67,.21-2.5,.43s-1.67,.43-2.28,.64c-5,1.32-23.25,13.96-23.25,19.23Zm149.99-78.42c-2.28,13.53-7.67,39.96-22.42,131.26l-1.44,13.75c-.42,3.7-2.5,5.45-5.81,5.45-.42,0-.83,0-1.44-.21-6.83-1.1-11.42-6.34-12.67-14.21-.83-3.7-1.44-7.65-1.86-11.36-6.44,10.72-13.28,29.06-26.14,29.06-2.08,0-4.14-.43-6.64-1.32-11.19-4.59-19.3-13.11-21.78-26.21-.61-3.06-.83-6.12-.83-8.94,0-4.38,.42-8.51,1.44-12.46,4.36-21.62,11.42-41.95,24.89-59.62,2.92-3.7,6.03-6.77,9.94-9.4,3.94-2.85,9.56-4.38,15.14-4.38,6.03,0,12.03,1.75,15.56,5.45l13.69-55.05c1.03-3.06,2.28-4.59,4.56-4.59,.61,0,1.44,0,2.5,.43,7.25,2.17,13.5,11.36,13.5,19.66,.03,.95,.03,1.81-.19,2.69Zm-38.36,54.38c0-1.96-1.86-3.49-3.94-3.49-.61,0-1.25,.21-1.67,.43-7.67,4.59-15.97,22.05-19.72,30.13-6.03,13.75-9.75,28.38-12.25,43.23-.19,.89-.42,1.96-.42,3.06s.22,2.17,.83,3.49c16.39-20.55,31.75-50.03,36.92-76.24l.25-.61Zm54.33-15.74c-1.67-.43-2.92-.89-3.94-.64-2.69,.21-3.94,2.39-3.72,6.55,.42,9.19-11.42,59.86-12.86,77.31-.42,4.59-1.03,10.26-.61,15.49,.19,5.66,1.67,10.93,5.61,14.42,5.19,4.59,8.72,6.34,11.19,6.12,4.97-.43,6.44-7.87,7.67-16.81,4.36-27.96,9.94-55.91,12.67-83.87v-2.85c-.64-8.73-8.53-12.89-16-15.74Zm18.28-28.6c-1.86-5.45-11-12.46-16.19-12.46h-.83c-2.5,.21-3.72,1.53-3.94,4.59-.42,6.77-.42,13.32-.42,18.34,.61,10.47,2.89,13.32,9.94,13.99h1.25c2.08-.21,3.72-.89,4.97-3.28,2.5-5.02,4.36-10.04,5.81-15.49,0-.89,.22-1.75,0-2.63,.03-1.1-.17-2.2-.58-3.06Zm96.05,60.5c2.28,2.39,3.11,4.59,3.11,7.44,0,.89,0,1.75-.19,2.63-4.97,22.93-13.89,46.08-14.94,70.12-.22,3.06-.61,6.77-3.94,8.08-.83,.43-1.86,.43-2.69,.43-2.28,0-4.56-1.1-6.44-2.85-6.22-5.66-7.89-13.32-8.5-21.4v-12.89c-5.19,8.94-16.19,24.04-24.69,29.49-2.28,1.53-4.78,2.17-7.06,2.17-3.33,0-6.64-1.32-9.75-3.06-11.19-6.77-16.61-17.27-16.61-30.8v-.64c.42-22.05,6.83-41.7,20.33-58.76,3.11-3.7,6.83-6.77,10.58-9.61,4.78-3.49,9.33-4.81,13.89-4.81,6.64,0,13.08,2.85,19.5,6.55,8.33,4.59,21.61,11.79,27.42,17.91Zm-26.36,1.1c0-.64-.19-1.53-1.03-2.39-1.86-2.17-3.72-3.06-5.39-3.06-4.14,0-8.31,4.59-12.03,8.51-10.58,11.36-17.42,25.32-21.36,40.63-1.03,3.49-1.86,7.44-1.86,11.57v1.32c3.53-.64,34.44-46.3,40.25-53.31,.81-1.1,1.42-1.99,1.42-3.28Z"/><path class="cls-2" d="M136.81,337.05c.19,.89,.19,1.53,.19,2.39v.89c0,4.38-1.03,8.3-2.5,12.25-1.44,3.7-3.11,7.2-4.97,10.47-3.53,6.55-9.75,14.85-16.8,23.15-8.31,9.61-17.64,19.23-24.47,25.32-8.5,7.44-17.64,14.64-27.39,18.34-4.14,1.53-8.31,2.63-12.86,2.63-6.22,0-12.86-1.96-19.72-6.55-9.14-5.91-15.36-14.42-18.89-24.04-2.28-6.12-3.33-12.46-3.33-19.01,0-4.59,.42-8.94,1.44-13.53,1.44-6.34,3.53-12.25,6.22-17.7,2.69-5.66,5.61-10.93,8.92-16.17,2.08-3.49,4.14-6.77,6.44-10.26,2.28-3.28,4.78-6.55,7.47-9.61,.42-.43,.61-.89,.61-.89,0-.21-.19-.43-.61-1.1-1.03-1.53-2.28-3.28-3.53-5.24-1.03-1.75-2.08-3.7-3.11-5.66-2.5-6.12-3.53-11.79-3.53-17.48v-1.53c.42-6.55,2.5-12.89,5.61-19.23,5.39-10.26,12.03-19.01,19.92-26.21,8.08-7.65,17.64-13.75,28-18.77,4.78-2.17,9.97-3.92,15.14-4.81,3.11-.64,6.44-.89,9.33-.89,4.36,0,8.31,.64,12.03,1.96,6.64,2.63,12.25,7.44,15.56,15.49,1.03,2.63,1.86,5.66,2.5,8.94,.19,.64,.19,1.32,.19,2.17,0,1.75-.42,3.7-1.03,5.24-1.03,2.42-2.69,4.38-4.97,5.24-.61,.21-1.25,.21-1.86,.21-1.86,0-3.94-.64-5.81-1.96-2.28-1.53-4.56-3.7-5.19-6.12-.42-.89-.42-1.75-.61-2.85,0-.21,.19-.43,.19-.43v-.21c-.19-.21-.61-.21-.83-.21-.83,0-1.86,.21-2.69,.43l-.83,.21c-5.81,1.53-11.42,3.49-16.8,6.34-5.39,2.63-10.36,5.91-15.36,9.4-6.44,4.59-13.69,11.79-19.3,19.87-4.97,6.77-8.72,14.21-10.17,20.97-.19,1.32-.19,2.17-.19,2.39,.19,.21,.61,.21,1.44,.21h1.03c2.5-.21,4.56-.64,6.44-1.32,2.28-.64,4.56-1.53,6.83-1.53,4.14,0,8.92,2.63,15.78,11.57,2.28,2.85,3.33,5.45,3.33,7.65,0,.43,0,1.1-.19,1.53-.83,2.85-3.11,4.81-7.47,6.12-.42,.21-1.03,.43-1.67,.64-1.25,.43-2.5,.89-3.94,1.1-2.92,.43-5.19,1.53-7.25,3.06-2.28,1.53-4.14,3.7-6.03,5.91-4.36,5.66-8.5,11.36-12.25,17.27-3.72,5.91-7.06,12-9.94,18.34-2.5,5.24-3.94,10.26-4.56,15.74-.19,2.17-.42,4.38-.42,6.77,0,3.06,.19,6.34,.61,9.61,.42,2.39,1.03,3.92,2.08,4.59,.42,.21,1.03,.43,1.86,.43s1.86-.21,3.11-.64c10.17-3.28,27.17-15.06,43.78-28.6,19.5-15.74,38.17-33.65,44.8-43.23,.61-.89,1.25-1.75,2.28-2.39,.83-.43,1.67-.89,2.69-.89,.83,0,1.44,.21,2.28,.64,1.72,.92,2.56,2.02,2.97,3.55Zm30.08,44.77c3.31-1.32,3.72-4.81,3.72-8.3v-4.13c-.19-3.92-.42-8.08-.42-12.25,0-41.27,10.58-87.14,17.64-126.67v-.21c0-6.55-11.83-15.49-18.47-15.49h-1.03c-2.08,.43-2.69,1.75-3.11,3.49-7.67,27.53-18.25,91.95-18.25,128.66,0,6.98,.42,12.68,1.25,17.27,1.03,5.24,3.31,9.83,6.22,13.99,1.86,2.17,6.83,4.16,10.17,4.16,.83-.06,1.67-.28,2.28-.52Zm19.5-43.66c0-13.75,4.36-27.1,10.78-40.2,4.78-9.61,11.83-16.81,19.92-23.15,7.89-6.34,15.36-8.94,21.78-8.94,15.36,0,25.3,14.64,25.3,29.7,0,15.95-11.42,32.33-40.25,32.33-4.14,0-8.92-.21-14.11-1.1-2.92,11.15-3.94,16.17-3.94,21.83,0,2.63,.19,5.66,.61,9.61,.83,9.61,4.78,13.11,10.17,13.11,13.08,0,34.44-20.97,41.08-25.78,.61-.43,1.44-1.32,2.28-1.32,.19,0,.61,.21,1.03,.64s.61,.89,.61,1.53-.19,1.53-.42,2.17c-1.86,8.73-11.83,30.59-28,37.57-3.11,1.96-6.22,2.85-9.56,2.85-2.69,0-5.39-.43-8.08-1.32-12.25-3.7-19.5-12.89-24.28-24.68-3.44-8.48-4.92-16.78-4.92-24.86Zm34.67-29.49c0,.43,0,.64,.19,.89,.61,1.1,1.67,1.53,2.92,1.53,1.03,0,2.28-.43,3.33-.43,9.94-.89,19.5-7.65,25.11-16.17,.42-1.1,.61-1.96,.61-2.63,0-2.17-1.44-3.49-4.14-3.49-.83,0-1.67,.21-2.5,.43s-1.67,.43-2.28,.64c-5,1.32-23.25,13.96-23.25,19.23Zm163.69,56.55c4.36-15.06,9.14-53.52,11-69.9,.22-1.75,.42-3.28,.42-4.81,0-5.66-2.28-8.3-8.72-11.57-3.94-1.96-6.83-3.7-9.14-3.7-2.5,0-4.56,1.75-7.06,6.98-5.19,10.72-9.75,21.62-15.36,32.12-4.56,8.73-8.31,17.7-12.25,26.64v-1.53c0-7.87,4.78-32.76,5.81-40.2,0-.64,.19-1.53,.19-2.17,0-3.49-1.44-6.34-4.14-8.73-2.92-2.63-6.44-4.38-10.17-5.45-1.25-.43-2.28-.64-3.11-.64-3.53,0-5.19,2.63-8.31,8.08,0,0-23.25,43.02-28.22,46.08,2.5-10.47,4.14-22.29,5.61-32.98,0-.89,.19-1.53,.19-2.39,0-9.61-7.25-17.27-16.39-17.7h-.83c-3.94,0-6.03,1.75-6.22,6.12-1.03,21.19-8.31,52.63-12.25,74.04-.19,1.32-.42,2.39-.42,3.7,0,4.38,2.08,7.87,5.81,10.93,2.69,1.96,5.81,3.28,8.92,4.16,1.67,.64,3.11,.89,4.36,.89,2.28,0,3.94-1.32,6.03-4.81,3.33-5.91,6.64-11.79,9.75-17.91,2.28-5.02,17.42-34.94,20.75-37.57,.19,.21,.19,.89,.19,1.96,0,6.98-4.56,30.37-5.19,35.15,0,.89-.19,1.96-.19,2.85,0,8.51,4.36,14.21,13.08,16.6,1.25,.43,2.5,.43,3.31,.43,1.67,0,2.92-.43,3.94-1.32,3.72-3.28,24.28-45.01,29.25-56.12,.42,.64,.61,1.32,.61,1.75,0,.89-.19,1.53-.42,2.39-1.86,8.73-3.11,17.48-4.14,26.64,0,.89-.19,1.96-.19,2.85,0,5.45,1.67,9.83,6.03,12.68,2.92,1.75,6.03,3.06,9.14,3.06,3.78-.03,6.89-1.99,8.33-6.58Zm25.53-2.17c-3.53-8.51-4.97-16.81-4.97-24.89,0-13.75,4.36-27.1,10.78-40.2,4.78-9.61,11.83-16.81,19.92-23.15,7.89-6.34,15.36-8.94,21.78-8.94,15.36,0,25.3,14.64,25.3,29.7,0,15.95-11.42,32.33-40.25,32.33-4.14,0-8.92-.21-14.11-1.1-2.92,11.15-3.94,16.17-3.94,21.83,0,2.63,.19,5.66,.61,9.61,.83,9.61,4.78,13.11,10.17,13.11,13.08,0,34.44-20.97,41.08-25.78,.61-.43,1.44-1.32,2.28-1.32,.22,0,.61,.21,1.03,.64s.61,.89,.61,1.53-.19,1.53-.42,2.17c-1.86,8.73-11.83,30.59-28,37.57-3.11,1.96-6.22,2.85-9.56,2.85-2.69,0-5.39-.43-8.08-1.32-12.19-3.67-19.44-12.86-24.22-24.65Zm29.67-54.38c0,.43,0,.64,.22,.89,.61,1.1,1.67,1.53,2.89,1.53,1.03,0,2.28-.43,3.33-.43,9.94-.89,19.5-7.65,25.11-16.17,.42-1.1,.61-1.96,.61-2.63,0-2.17-1.44-3.49-4.14-3.49-.83,0-1.67,.21-2.5,.43s-1.67,.43-2.28,.64c-5,1.32-23.25,13.96-23.25,19.23Zm61.61,70.55c1.03,.43,2.28,.64,3.53,.64s2.5-.43,3.33-1.53c13.89-20.97,23.86-40.85,37.14-60.93,.42,.21,.83,.21,1.44,.43-.42,2.85-.83,5.91-1.25,8.73-2.08,11.57-3.94,23.36-6.22,34.94-.22,1.75-.42,3.49-.42,5.02,0,3.06,.42,5.91,1.67,8.73,1.67,4.38,6.22,6.98,12.67,8.51h1.03c4.56-.43,6.42-3.7,8.5-7.87,3.11-6.12,4.56-11.36,5.61-16.81,3.53-19.66,5.19-40.85,8.92-60.5,0-.43,.22-.89,.22-1.32,0-7.44-10.17-14.85-17.83-16.17-1.44-.64-2.69-.89-3.72-.89-1.86,0-3.11,1.32-4.36,4.38-3.72,8.73-28.64,48.93-31.75,48.93,0-.43,5.81-36.04,6.03-37.36,.22-1.53,.42-2.85,.42-4.13,0-10.47-8.5-15.06-19.72-14.64-2.92,0-4.56,.89-4.97,4.16-1.67,13.75-11.19,66.41-14.53,78.63-.61,1.96-.83,3.7-.83,5.45-.03,8.11,6,12.28,15.11,13.59Zm158.72-120.58h3.72c1.67,0,3.11-.43,3.94-2.17,.19-.64,.42-1.32,.42-1.96,0-3.28-2.28-6.98-6.03-6.98h-.61c-6.03-.43-20.14-1.53-20.14-8.51v-.21c0-.89,.22-1.75,.22-2.63,0-15.95-12.86-22.93-20.14-22.93-2.92,0-4.78,1.1-4.78,3.06v1.75c0,9.19-3.53,28.17-12.44,30.13-7.25,1.75-14.53,4.59-22,5.24-1.67,.21-2.5,.89-2.5,2.17,0,.64,.22,1.32,.61,1.96,3.94,7.44,10.78,11.57,19.72,11.57h1.03c1.67,0,2.69,1.1,2.69,2.85,0,.43,0,.89-.22,1.32-.19,1.1-.42,2.17-.83,3.06-3.72,12.46-13.08,69.69-13.08,88.89v3.06c.83,8.51,9.14,14.64,16.58,16.81,1.67,.43,2.92,.64,3.94,.64,2.69,0,3.53-1.75,4.36-6.34,5.39-36.68,7.47-78.84,20.53-113.81,1.25-2.85,2.69-3.92,5.39-4.38,6.56-1.04,12.97-2.57,19.61-2.57Zm69.5,42.16c2.28,2.39,3.11,4.59,3.11,7.44,0,.89,0,1.75-.19,2.63-4.97,22.93-13.89,46.08-14.94,70.12-.22,3.06-.61,6.77-3.94,8.08-.83,.43-1.86,.43-2.69,.43-2.28,0-4.56-1.1-6.44-2.85-6.22-5.66-7.89-13.32-8.5-21.4v-12.89c-5.19,8.94-16.19,24.04-24.69,29.49-2.28,1.53-4.78,2.17-7.06,2.17-3.31,0-6.64-1.32-9.75-3.06-11.19-6.77-16.61-17.27-16.61-30.8v-.64c.42-22.05,6.83-41.7,20.33-58.76,3.11-3.7,6.83-6.77,10.58-9.61,4.78-3.49,9.33-4.81,13.89-4.81,6.64,0,13.08,2.85,19.5,6.55,8.33,4.59,21.61,11.79,27.42,17.91Zm-26.33,1.1c0-.64-.19-1.53-1.03-2.39-1.86-2.17-3.72-3.06-5.39-3.06-4.14,0-8.31,4.59-12.03,8.51-10.58,11.36-17.42,25.32-21.36,40.63-1.03,3.49-1.86,7.44-1.86,11.57v1.32c3.53-.64,34.44-46.3,40.25-53.31,.78-1.1,1.42-1.99,1.42-3.28Zm78.64-71.65c0-6.55-11.83-15.49-18.47-15.49h-1.03c-2.08,.43-2.69,1.75-3.11,3.49-7.67,27.53-18.25,91.95-18.25,128.66,0,6.98,.42,12.68,1.25,17.27,1.03,5.24,3.33,9.83,6.22,13.99,1.86,2.17,6.83,4.16,10.17,4.16,.83,0,1.67-.21,2.28-.43,3.33-1.32,3.72-4.81,3.72-8.3v-4.13c-.22-3.92-.42-8.08-.42-12.25,0-41.27,10.58-87.14,17.64-126.67v-.31h0Zm-497.62,206.04c-4.14-3.06-8.92-4.59-13.47-6.12-1.03-.43-1.86-.43-2.5-.43-2.08,0-3.11,1.32-4.56,4.16-11,20.55-21.58,38.67-31.11,60.07-4.14-13.99-4.56-28.84-8.08-41.7-3.72-13.11-14.94-23.58-26.97-24.68-1.03-.21-1.86-.21-2.69-.21-3.72,0-4.78,1.53-5.19,6.77-.83,9.19-3.72,17.7-6.22,26.21-4.36,16.6-23.64,88.24-25.3,119.05-.19,2.42-.19,4.81-.19,6.77,0,10.47,2.28,16.17,13.69,16.17,1.44,0,2.92,0,4.36-.21,4.14-.21,4.14-4.81,4.78-8.08,1.67-6.55,2.69-13.53,4.36-20.09,1.44-5.45,18.05-84.08,18.25-84.29,.61,2.85,1.03,5.24,1.67,7.44,1.86,8.51,3.72,17.02,6.22,25.57,2.92,9.19,12.86,15.28,21.78,15.28,.83,0,1.86,0,2.69-.21,2.92-.43,3.94-1.96,3.94-4.59l-.61-5.24c-.19-.89-.19-1.75-.19-2.63,0-1.53,.19-2.85,.83-4.38,6.64-16.38,12.25-33.19,21.17-49.79,0,.21,.19,.64,.19,1.53,0,9.4-7.47,56.34-8.72,63.78-1.44,8.3-2.5,27.96-2.5,36.47v.64c0,6.34,2.69,11.15,7.89,14.42,3.72,2.17,7.89,3.49,12.25,4.16,.61,0,1.44,.21,1.86,.21,3.53,0,4.78-1.75,5.39-6.34,.42-4.81,.19-9.4,.61-14.21,2.92-46.3,12.25-83.87,14.11-117.52v-1.75c-.06-6.86-2.33-12.31-7.72-16.23Zm37.14,101.78c-2.92,11.15-3.94,16.17-3.94,21.83,0,2.63,.19,5.66,.61,9.61,.83,9.61,4.78,13.11,10.17,13.11,13.08,0,34.44-20.97,41.08-25.78,.61-.43,1.44-1.32,2.28-1.32,.19,0,.61,.21,1.03,.64s.61,.89,.61,1.53-.19,1.53-.42,2.17c-1.86,8.73-11.83,30.59-28,37.57-3.11,1.96-6.22,2.85-9.56,2.85-2.69,0-5.39-.43-8.08-1.32-12.25-3.7-19.5-12.89-24.28-24.68-3.53-8.51-4.97-16.81-4.97-24.89,0-13.75,4.36-27.1,10.78-40.2,4.78-9.61,11.83-16.81,19.92-23.15,7.89-6.34,15.36-8.94,21.78-8.94,15.36,0,25.3,14.64,25.3,29.7,0,15.95-11.42,32.33-40.25,32.33-4.11,0-8.89-.21-14.06-1.07Zm11.19-18.13c0,.43,0,.64,.19,.89,.61,1.1,1.67,1.53,2.92,1.53,1.03,0,2.28-.43,3.33-.43,9.94-.89,19.5-7.65,25.11-16.17,.42-1.1,.61-1.96,.61-2.63,0-2.17-1.44-3.49-4.14-3.49-.83,0-1.67,.21-2.5,.43s-1.67,.43-2.28,.64c-5,1.32-23.25,13.96-23.25,19.23Zm149.99-78.42c-2.28,13.53-7.67,39.96-22.42,131.26l-1.44,13.75c-.42,3.7-2.5,5.45-5.81,5.45-.42,0-.83,0-1.44-.21-6.83-1.1-11.42-6.34-12.67-14.21-.83-3.7-1.44-7.65-1.86-11.36-6.44,10.72-13.28,29.06-26.14,29.06-2.08,0-4.14-.43-6.64-1.32-11.19-4.59-19.3-13.11-21.78-26.21-.61-3.06-.83-6.12-.83-8.94,0-4.38,.42-8.51,1.44-12.46,4.36-21.62,11.42-41.95,24.89-59.62,2.92-3.7,6.03-6.77,9.94-9.4,3.94-2.85,9.56-4.38,15.14-4.38,6.03,0,12.03,1.75,15.56,5.45l13.69-55.05c1.03-3.06,2.28-4.59,4.56-4.59,.61,0,1.44,0,2.5,.43,7.25,2.17,13.5,11.36,13.5,19.66,.03,.95,.03,1.81-.19,2.69Zm-38.36,54.38c0-1.96-1.86-3.49-3.94-3.49-.61,0-1.25,.21-1.67,.43-7.67,4.59-15.97,22.05-19.72,30.13-6.03,13.75-9.75,28.38-12.25,43.23-.19,.89-.42,1.96-.42,3.06s.22,2.17,.83,3.49c16.39-20.55,31.75-50.03,36.92-76.24l.25-.61Zm54.33-15.74c-1.67-.43-2.92-.89-3.94-.64-2.69,.21-3.94,2.39-3.72,6.55,.42,9.19-11.42,59.86-12.86,77.31-.42,4.59-1.03,10.26-.61,15.49,.19,5.66,1.67,10.93,5.61,14.42,5.19,4.59,8.72,6.34,11.19,6.12,4.97-.43,6.44-7.87,7.67-16.81,4.36-27.96,9.94-55.91,12.67-83.87v-2.85c-.64-8.73-8.53-12.89-16-15.74Zm18.28-28.6c-1.86-5.45-11-12.46-16.19-12.46h-.83c-2.5,.21-3.72,1.53-3.94,4.59-.42,6.77-.42,13.32-.42,18.34,.61,10.47,2.89,13.32,9.94,13.99h1.25c2.08-.21,3.72-.89,4.97-3.28,2.5-5.02,4.36-10.04,5.81-15.49,0-.89,.22-1.75,0-2.63,.03-1.1-.17-2.2-.58-3.06Zm96.05,60.5c2.28,2.39,3.11,4.59,3.11,7.44,0,.89,0,1.75-.19,2.63-4.97,22.93-13.89,46.08-14.94,70.12-.22,3.06-.61,6.77-3.94,8.08-.83,.43-1.86,.43-2.69,.43-2.28,0-4.56-1.1-6.44-2.85-6.22-5.66-7.89-13.32-8.5-21.4v-12.89c-5.19,8.94-16.19,24.04-24.69,29.49-2.28,1.53-4.78,2.17-7.06,2.17-3.33,0-6.64-1.32-9.75-3.06-11.19-6.77-16.61-17.27-16.61-30.8v-.64c.42-22.05,6.83-41.7,20.33-58.76,3.11-3.7,6.83-6.77,10.58-9.61,4.78-3.49,9.33-4.81,13.89-4.81,6.64,0,13.08,2.85,19.5,6.55,8.33,4.59,21.61,11.79,27.42,17.91Zm-26.36,1.1c0-.64-.19-1.53-1.03-2.39-1.86-2.17-3.72-3.06-5.39-3.06-4.14,0-8.31,4.59-12.03,8.51-10.58,11.36-17.42,25.32-21.36,40.63-1.03,3.49-1.86,7.44-1.86,11.57v1.32c3.53-.64,34.44-46.3,40.25-53.31,.81-1.1,1.42-1.99,1.42-3.28Z"/></g><g><path class="cls-1" d="M165.05,32.72c-5.19,29.58-9.97,59.28-14.31,89.01-9.39,1.62-14.08,2.48-23.47,4.26-9.14-19.44-13.81-29.12-23.28-48.44-2.97,21.8-4.39,32.7-7,54.5-9.36,1.99-14.03,3-23.36,5.14-13.58-26.15-27.55-52.08-41.92-77.74,9.39-2.33,14.08-3.43,23.5-5.6,10.56,19.93,15.75,29.95,25.94,50.03,2.78-22.93,4.25-34.39,7.42-57.32,8.42-1.75,12.64-2.6,21.05-4.23,10,20.48,14.89,30.77,24.5,51.44,3.36-22.99,5.14-34.51,8.92-57.5,8.81-1.47,13.22-2.2,22-3.55Z"/><path class="cls-1" d="M237.19,81.9c-17.83,1.99-26.72,3.12-44.5,5.63,2.58,6.43,8.31,9.55,16.17,8.51,5.94-.8,9.69-3.09,13.47-7.5,5.03,4.5,7.5,6.77,12.47,11.33-5.17,7.75-13.25,12.37-24.69,13.9-21.44,2.85-37.17-9.34-39.72-28.97-2.56-19.75,10.25-36.16,30-38.83,18.47-2.48,34.64,8.33,36.64,30.13,.14,1.71,.11,3.95,.17,5.79Zm-46.28-6.46c10.08-1.44,15.14-2.11,25.22-3.37-1.86-6.8-7.11-10.56-13.86-9.68-6.72,.92-10.92,5.94-11.36,13.04Z"/><path class="cls-1" d="M242.05,17.5c8.89-.92,13.36-1.38,22.25-2.17,2.25,30.19,4.47,60.38,6.72,90.57-8.47,.77-12.72,1.16-21.19,2.05-2.58-30.13-5.19-60.29-7.78-90.45Z"/><path class="cls-1" d="M278.69,71.82c-1.36-19.9,12.61-35.4,33.69-36.65,14.25-.86,25.42,5.42,30.05,16.75-6.64,3.95-9.92,5.94-16.5,9.95-3.22-6.09-7.72-8.54-12.78-8.24-7.58,.46-13.22,6.49-12.67,16.5,.58,10.26,6.75,15.46,14.19,15.03,4.97-.31,9.11-3.22,11.81-9.61,6.83,3.34,10.22,5.02,16.97,8.42-3.81,11.67-14.03,18.83-27.75,19.66-20.3,1.22-35.67-11.67-37.03-31.81Z"/><path class="cls-1" d="M346.6,67.72c-.61-19.96,13.89-34.78,34.44-35.09,20.78-.31,35.42,14.08,35.28,34.05-.14,20.09-14.44,34.23-34.44,34.51-19.78,.31-34.64-13.41-35.28-33.47Zm47.86-1.07c-.06-10.04-5.72-15.65-13.17-15.52-7.36,.12-13,5.88-12.81,15.92,.19,10.17,5.94,15.77,13.17,15.68,7.33-.12,12.83-5.91,12.81-16.08Z"/><path class="cls-1" d="M531.96,67.41c-1.06,15.13-1.58,22.72-2.67,37.85-8.47-.73-12.72-1.04-21.22-1.65,.81-13.63,1.19-20.45,2-34.11,.56-9.52-2.89-13.84-8.61-14.21-6.31-.4-11.11,3.86-11.58,14.15-.61,13.17-.94,19.75-1.56,32.89-8.5-.49-12.75-.7-21.22-1.07,.47-13.66,.72-20.48,1.19-34.14,.33-9.55-3.08-13.75-8.92-13.96-6.42-.24-11.14,4.16-11.39,14.45-.31,13.17-.47,19.75-.81,32.92-8.5-.24-12.75-.34-21.25-.46,.33-26.55,.5-39.8,.83-66.35,8.39,.12,12.58,.21,21,.46-.06,2.79-.11,4.19-.17,6.98,4.86-5.24,11.56-7.72,18.97-7.41,8.58,.37,15.78,4.04,19.83,11.36,5.25-6.34,13.22-9.68,22.25-9.06,14.61,1.01,24.75,10.9,23.3,31.38Z"/><path class="cls-1" d="M608.01,86.58c-17.78-2.45-26.69-3.52-44.53-5.45,1.22,6.89,6.14,11.36,14.03,12.28,5.97,.7,10.06-.64,14.64-4.01,3.97,5.63,5.94,8.45,9.86,14.12-6.58,6.28-15.42,8.82-26.89,7.47-21.47-2.51-34.3-18.22-32.8-38,1.53-19.9,17.3-32.73,37.05-30.47,18.5,2.14,32.08,16.63,29.61,38.37-.17,1.75-.64,3.89-.97,5.7Zm-43.78-17.67c10.11,1.07,15.17,1.65,25.28,2.91-.44-7.07-4.81-12.06-11.56-12.83-6.78-.77-11.86,3.12-13.72,9.92Z"/><path class="cls-1" d="M689.23,125.01c-4.06,1.81-9.67,1.99-15.19,.95-15.36-2.85-23.22-12.55-20.89-29.36,1.22-8.82,1.83-13.23,3.06-22.05-3.58-.61-5.39-.92-9-1.5,.92-6.89,1.39-10.32,2.31-17.21,3.64,.58,5.44,.89,9.08,1.5,.94-6.83,1.42-10.23,2.36-17.05,8.81,1.5,13.19,2.27,22,3.86-1.03,6.83-1.56,10.23-2.58,17.02,5.69,1.04,8.53,1.59,14.19,2.66-1.08,6.86-1.64,10.29-2.72,17.12-5.64-1.07-8.44-1.62-14.08-2.66-1.31,8.7-1.97,13.04-3.28,21.74-.72,4.84,1.44,7.96,5.25,8.67,2.33,.43,4.81,.15,6.81-.83,1.11,6.92,1.64,10.32,2.69,17.15Z"/><path class="cls-1" d="M696.67,95.37c3.19-19.66,20.28-30.77,40.5-26.27,20.47,4.53,32.11,22.05,28.17,41.52-3.97,19.6-20.75,30.07-40.44,25.69-19.47-4.29-31.44-21.16-28.22-40.94Zm47.19,10.13c1.86-9.83-2.61-16.63-9.97-18.25-7.25-1.62-13.89,2.73-15.61,12.58-1.75,9.98,2.83,16.81,9.94,18.4,7.22,1.56,13.75-2.79,15.64-12.74Z"/></g></g></svg>